<?xml version="1.0" encoding="utf-8"?>
<svg viewBox="179.9824 279.0211 216.5948 62.2341" width="216.5948" height="62.2341"
    xmlns="http://www.w3.org/2000/svg">
    <g fill="#000000" fill-opacity="1"
        transform="matrix(1, 0, 0, 1, 111.79855346679688, 40.489204406738274)">
        <g transform="translate(67.308839, 272.218484)">
            <g>
                <path
                    d="M 10.3125 -3.53125 C 10.3125 -2.445312 9.898438 -1.535156 9.078125 -0.796875 C 8.265625 -0.0664062 7.25 0.296875 6.03125 0.296875 C 5.1875 0.296875 4.359375 0.132812 3.546875 -0.1875 C 3.128906 -0.34375 2.800781 -0.421875 2.5625 -0.421875 C 2.40625 -0.421875 2.269531 -0.351562 2.15625 -0.21875 C 2.050781 -0.0820312 1.988281 0.078125 1.96875 0.265625 L 1.515625 0.265625 L 0.875 -4.171875 L 1.359375 -4.171875 C 1.890625 -2.890625 2.492188 -1.953125 3.171875 -1.359375 C 3.859375 -0.765625 4.671875 -0.46875 5.609375 -0.46875 C 6.378906 -0.46875 7 -0.679688 7.46875 -1.109375 C 7.945312 -1.546875 8.1875 -2.113281 8.1875 -2.8125 C 8.1875 -3.332031 8.085938 -3.742188 7.890625 -4.046875 C 7.378906 -4.835938 6.335938 -5.660156 4.765625 -6.515625 C 3.585938 -7.128906 2.742188 -7.75 2.234375 -8.375 C 1.734375 -9.007812 1.484375 -9.742188 1.484375 -10.578125 C 1.484375 -11.734375 1.890625 -12.644531 2.703125 -13.3125 C 3.429688 -13.90625 4.222656 -14.203125 5.078125 -14.203125 C 5.773438 -14.203125 6.53125 -14.046875 7.34375 -13.734375 C 7.726562 -13.566406 8.039062 -13.484375 8.28125 -13.484375 C 8.632812 -13.484375 8.859375 -13.722656 8.953125 -14.203125 L 9.390625 -14.203125 L 9.84375 -9.71875 L 9.328125 -9.71875 C 9.046875 -10.769531 8.617188 -11.59375 8.046875 -12.1875 C 7.304688 -12.945312 6.453125 -13.328125 5.484375 -13.328125 C 4.828125 -13.328125 4.296875 -13.148438 3.890625 -12.796875 C 3.492188 -12.441406 3.296875 -11.976562 3.296875 -11.40625 C 3.296875 -10.832031 3.53125 -10.289062 4 -9.78125 C 4.476562 -9.28125 5.273438 -8.726562 6.390625 -8.125 C 7.773438 -7.375 8.773438 -6.632812 9.390625 -5.90625 C 10.003906 -5.1875 10.3125 -4.394531 10.3125 -3.53125 Z M 10.3125 -3.53125 " />
            </g>
        </g>
    </g>
    <g fill="#000000" fill-opacity="1"
        transform="matrix(1, 0, 0, 1, 111.79855346679688, 40.489204406738274)">
        <g transform="translate(78.98489, 272.218484)">
            <g>
                <path
                    d="M 14.453125 -6.859375 C 14.453125 -4.753906 13.800781 -3.035156 12.5 -1.703125 C 11.207031 -0.367188 9.523438 0.296875 7.453125 0.296875 C 6.523438 0.296875 5.625 0.101562 4.75 -0.28125 C 3.875 -0.664062 3.128906 -1.1875 2.515625 -1.84375 C 1.960938 -2.445312 1.523438 -3.195312 1.203125 -4.09375 C 0.878906 -5 0.71875 -5.953125 0.71875 -6.953125 C 0.71875 -9.066406 1.359375 -10.800781 2.640625 -12.15625 C 3.929688 -13.519531 5.578125 -14.203125 7.578125 -14.203125 C 9.640625 -14.203125 11.34375 -13.460938 12.6875 -11.984375 C 13.863281 -10.703125 14.453125 -8.992188 14.453125 -6.859375 Z M 12.046875 -6.890625 C 12.046875 -9.472656 11.453125 -11.304688 10.265625 -12.390625 C 9.484375 -13.085938 8.585938 -13.4375 7.578125 -13.4375 C 6.398438 -13.4375 5.398438 -12.984375 4.578125 -12.078125 C 4.128906 -11.585938 3.769531 -10.867188 3.5 -9.921875 C 3.238281 -8.972656 3.109375 -7.96875 3.109375 -6.90625 C 3.109375 -5.75 3.269531 -4.675781 3.59375 -3.6875 C 3.914062 -2.695312 4.347656 -1.960938 4.890625 -1.484375 C 5.660156 -0.804688 6.539062 -0.46875 7.53125 -0.46875 C 8.65625 -0.46875 9.585938 -0.835938 10.328125 -1.578125 C 10.835938 -2.066406 11.179688 -2.578125 11.359375 -3.109375 C 11.816406 -4.304688 12.046875 -5.566406 12.046875 -6.890625 Z M 12.046875 -6.890625 " />
            </g>
        </g>
    </g>
    <g fill="#000000" fill-opacity="1"
        transform="matrix(1, 0, 0, 1, 111.79855346679688, 40.489204406738274)">
        <g transform="translate(94.146949, 272.218484)">
            <g>
                <path
                    d="M 12.453125 -3.78125 C 12.453125 -2.726562 12.0625 -1.851562 11.28125 -1.15625 C 10.4375 -0.382812 9.132812 0 7.375 0 L 0.359375 0 L 0.359375 -0.40625 C 1.222656 -0.425781 1.773438 -0.546875 2.015625 -0.765625 C 2.253906 -0.992188 2.375 -1.5 2.375 -2.28125 L 2.375 -11.609375 C 2.375 -12.378906 2.257812 -12.875 2.03125 -13.09375 C 1.800781 -13.3125 1.242188 -13.445312 0.359375 -13.5 L 0.359375 -13.90625 L 6.234375 -13.90625 C 9.898438 -13.90625 11.734375 -12.710938 11.734375 -10.328125 C 11.734375 -9.421875 11.457031 -8.722656 10.90625 -8.234375 C 10.457031 -7.835938 9.773438 -7.53125 8.859375 -7.3125 C 9.546875 -7.144531 10.066406 -6.976562 10.421875 -6.8125 C 10.785156 -6.65625 11.117188 -6.4375 11.421875 -6.15625 C 12.109375 -5.507812 12.453125 -4.71875 12.453125 -3.78125 Z M 10.03125 -3.765625 C 10.03125 -5.046875 9.445312 -5.929688 8.28125 -6.421875 C 7.601562 -6.703125 6.347656 -6.84375 4.515625 -6.84375 L 4.515625 -1.640625 C 4.515625 -1.304688 4.601562 -1.078125 4.78125 -0.953125 C 4.96875 -0.835938 5.320312 -0.78125 5.84375 -0.78125 C 7.144531 -0.78125 8.113281 -0.960938 8.75 -1.328125 C 9.601562 -1.816406 10.03125 -2.628906 10.03125 -3.765625 Z M 9.59375 -10.25 C 9.59375 -11.1875 9.273438 -11.898438 8.640625 -12.390625 C 8.015625 -12.878906 7.101562 -13.125 5.90625 -13.125 L 4.984375 -13.125 C 4.671875 -13.125 4.515625 -12.914062 4.515625 -12.5 L 4.515625 -7.6875 L 6.515625 -7.6875 C 7.492188 -7.6875 8.25 -7.90625 8.78125 -8.34375 C 9.320312 -8.789062 9.59375 -9.425781 9.59375 -10.25 Z M 9.59375 -10.25 " />
            </g>
        </g>
    </g>
    <g fill="#000000" fill-opacity="1"
        transform="matrix(1, 0, 0, 1, 111.79855346679688, 40.489204406738274)">
        <g transform="translate(108.154001, 272.218484)">
            <g>
                <path
                    d="M 14.453125 -6.859375 C 14.453125 -4.753906 13.800781 -3.035156 12.5 -1.703125 C 11.207031 -0.367188 9.523438 0.296875 7.453125 0.296875 C 6.523438 0.296875 5.625 0.101562 4.75 -0.28125 C 3.875 -0.664062 3.128906 -1.1875 2.515625 -1.84375 C 1.960938 -2.445312 1.523438 -3.195312 1.203125 -4.09375 C 0.878906 -5 0.71875 -5.953125 0.71875 -6.953125 C 0.71875 -9.066406 1.359375 -10.800781 2.640625 -12.15625 C 3.929688 -13.519531 5.578125 -14.203125 7.578125 -14.203125 C 9.640625 -14.203125 11.34375 -13.460938 12.6875 -11.984375 C 13.863281 -10.703125 14.453125 -8.992188 14.453125 -6.859375 Z M 12.046875 -6.890625 C 12.046875 -9.472656 11.453125 -11.304688 10.265625 -12.390625 C 9.484375 -13.085938 8.585938 -13.4375 7.578125 -13.4375 C 6.398438 -13.4375 5.398438 -12.984375 4.578125 -12.078125 C 4.128906 -11.585938 3.769531 -10.867188 3.5 -9.921875 C 3.238281 -8.972656 3.109375 -7.96875 3.109375 -6.90625 C 3.109375 -5.75 3.269531 -4.675781 3.59375 -3.6875 C 3.914062 -2.695312 4.347656 -1.960938 4.890625 -1.484375 C 5.660156 -0.804688 6.539062 -0.46875 7.53125 -0.46875 C 8.65625 -0.46875 9.585938 -0.835938 10.328125 -1.578125 C 10.835938 -2.066406 11.179688 -2.578125 11.359375 -3.109375 C 11.816406 -4.304688 12.046875 -5.566406 12.046875 -6.890625 Z M 12.046875 -6.890625 " />
            </g>
        </g>
    </g>
    <g fill="#000000" fill-opacity="1"
        transform="matrix(1, 0, 0, 1, 111.79855346679688, 40.489204406738274)">
        <g transform="translate(123.31606, 272.218484)">
            <g>
                <path
                    d="M 12.453125 -10.328125 L 11.953125 -10.328125 C 11.710938 -11.492188 11.390625 -12.234375 10.984375 -12.546875 C 10.585938 -12.859375 9.796875 -13.015625 8.609375 -13.015625 L 7.46875 -13.015625 L 7.46875 -2.28125 C 7.46875 -1.519531 7.585938 -1.023438 7.828125 -0.796875 C 8.066406 -0.578125 8.617188 -0.445312 9.484375 -0.40625 L 9.484375 0 L 3.359375 0 L 3.359375 -0.40625 C 4.222656 -0.457031 4.765625 -0.597656 4.984375 -0.828125 C 5.210938 -1.054688 5.328125 -1.617188 5.328125 -2.515625 L 5.328125 -13.015625 L 4.203125 -13.015625 C 3.023438 -13.015625 2.234375 -12.851562 1.828125 -12.53125 C 1.429688 -12.207031 1.109375 -11.472656 0.859375 -10.328125 L 0.359375 -10.328125 L 0.484375 -13.90625 L 12.328125 -13.90625 Z M 12.453125 -10.328125 " />
            </g>
        </g>
    </g>
    <g fill="#000000" fill-opacity="1"
        transform="matrix(1, 0, 0, 1, 111.79855346679688, 40.489204406738274)">
        <g transform="translate(136.147117, 272.218484)">
            <g>
                <path
                    d="M 14.828125 0 L 9.46875 0 L 9.46875 -0.40625 C 10.039062 -0.40625 10.429688 -0.46875 10.640625 -0.59375 C 10.835938 -0.6875 10.9375 -0.851562 10.9375 -1.09375 C 10.9375 -1.425781 10.804688 -1.898438 10.546875 -2.515625 L 9.6875 -4.53125 L 4.171875 -4.53125 L 3.21875 -2.078125 C 3.101562 -1.785156 3.046875 -1.515625 3.046875 -1.265625 C 3.046875 -0.691406 3.519531 -0.40625 4.46875 -0.40625 L 4.46875 0 L 0.3125 0 L 0.3125 -0.40625 C 0.820312 -0.425781 1.210938 -0.617188 1.484375 -0.984375 C 1.765625 -1.359375 2.242188 -2.3125 2.921875 -3.84375 L 7.28125 -14.15625 L 7.703125 -14.15625 L 12.9375 -2.21875 C 13.300781 -1.4375 13.585938 -0.941406 13.796875 -0.734375 C 14.003906 -0.535156 14.347656 -0.425781 14.828125 -0.40625 Z M 9.390625 -5.390625 L 6.953125 -11.171875 L 4.53125 -5.390625 Z M 9.390625 -5.390625 " />
            </g>
        </g>
    </g>
    <g fill="#c9862c" fill-opacity="1"
        transform="matrix(1, 0, 0, 1, 111.79855346679688, 40.489204406738274)">
        <g transform="translate(169.176487, 270.638288)">
            <g>
                <path
                    d="M 16.109375 -8.171875 C 16.109375 -5.628906 15.203125 -3.566406 13.390625 -1.984375 C 12.515625 -1.210938 11.394531 -0.601562 10.03125 -0.15625 C 8.664062 0.289062 7.257812 0.515625 5.8125 0.515625 C 4.519531 0.515625 3.492188 0.320312 2.734375 -0.0625 C 1.984375 -0.445312 1.609375 -0.960938 1.609375 -1.609375 C 1.609375 -2.003906 1.738281 -2.316406 2 -2.546875 C 2.257812 -2.785156 2.597656 -2.90625 3.015625 -2.90625 C 3.566406 -2.90625 4.363281 -2.597656 5.40625 -1.984375 C 6.601562 -1.210938 7.648438 -0.828125 8.546875 -0.828125 C 9.910156 -0.828125 11.0625 -1.359375 12 -2.421875 C 12.945312 -3.492188 13.421875 -4.8125 13.421875 -6.375 C 13.421875 -7.664062 13.082031 -8.800781 12.40625 -9.78125 C 11.738281 -10.769531 10.820312 -11.472656 9.65625 -11.890625 C 8.9375 -12.171875 7.617188 -12.3125 5.703125 -12.3125 L 5.703125 -12.796875 C 7.890625 -13.566406 9.457031 -14.421875 10.40625 -15.359375 C 11.394531 -16.359375 11.890625 -17.566406 11.890625 -18.984375 C 11.890625 -20.148438 11.507812 -21.101562 10.75 -21.84375 C 10 -22.59375 9.015625 -22.96875 7.796875 -22.96875 C 6.628906 -22.96875 5.601562 -22.648438 4.71875 -22.015625 C 3.832031 -21.390625 3.003906 -20.390625 2.234375 -19.015625 L 1.671875 -19.171875 C 2.398438 -21.128906 3.234375 -22.535156 4.171875 -23.390625 C 5.546875 -24.609375 7.164062 -25.21875 9.03125 -25.21875 C 10.738281 -25.21875 12.132812 -24.742188 13.21875 -23.796875 C 14.300781 -22.847656 14.84375 -21.617188 14.84375 -20.109375 C 14.84375 -19.085938 14.582031 -18.191406 14.0625 -17.421875 C 13.539062 -16.648438 12.632812 -15.828125 11.34375 -14.953125 C 12.757812 -14.335938 13.789062 -13.679688 14.4375 -12.984375 C 15.550781 -11.785156 16.109375 -10.179688 16.109375 -8.171875 Z M 16.109375 -8.171875 " />
            </g>
        </g>
    </g>
    <g fill="#c9862c" fill-opacity="1"
        transform="matrix(1, 0, 0, 1, 111.79855346679688, 40.489204406738274)">
        <g transform="translate(187.822341, 270.638288)">
            <g>
                <path
                    d="M 6.75 -1.609375 C 6.75 -1.054688 6.535156 -0.582031 6.109375 -0.1875 C 5.691406 0.207031 5.195312 0.40625 4.625 0.40625 C 4.070312 0.40625 3.597656 0.207031 3.203125 -0.1875 C 2.804688 -0.582031 2.609375 -1.054688 2.609375 -1.609375 C 2.609375 -2.179688 2.8125 -2.675781 3.21875 -3.09375 C 3.632812 -3.519531 4.113281 -3.734375 4.65625 -3.734375 C 5.226562 -3.734375 5.71875 -3.519531 6.125 -3.09375 C 6.539062 -2.675781 6.75 -2.179688 6.75 -1.609375 Z M 6.75 -1.609375 " />
            </g>
        </g>
    </g>
    <g fill="#c9862c" fill-opacity="1"
        transform="matrix(1, 0, 0, 1, 111.79855346679688, 40.489204406738274)">
        <g transform="translate(166.775127, 290.979219)">
            <g>
                <path
                    d="M 7.78125 -2.25 L 6.890625 0 L 0.484375 0 L 0.484375 -0.203125 L 3.40625 -3.296875 C 4.832031 -4.804688 5.546875 -6.226562 5.546875 -7.5625 C 5.546875 -8.25 5.332031 -8.800781 4.90625 -9.21875 C 4.476562 -9.644531 3.921875 -9.859375 3.234375 -9.859375 C 2.660156 -9.859375 2.203125 -9.703125 1.859375 -9.390625 C 1.515625 -9.085938 1.179688 -8.535156 0.859375 -7.734375 L 0.515625 -7.8125 C 0.753906 -8.832031 1.101562 -9.582031 1.5625 -10.0625 C 2.175781 -10.738281 2.960938 -11.078125 3.921875 -11.078125 C 4.773438 -11.078125 5.492188 -10.796875 6.078125 -10.234375 C 6.660156 -9.679688 6.953125 -8.992188 6.953125 -8.171875 C 6.953125 -6.941406 6.253906 -5.59375 4.859375 -4.125 L 2.09375 -1.25 L 6.015625 -1.25 C 6.390625 -1.25 6.664062 -1.3125 6.84375 -1.4375 C 7.019531 -1.5625 7.265625 -1.859375 7.578125 -2.328125 Z M 7.78125 -2.25 " />
            </g>
        </g>
    </g>
    <g fill="#c9862c" fill-opacity="1"
        transform="matrix(1, 0, 0, 1, 111.79855346679688, 40.489204406738274)">
        <g transform="translate(174.967991, 290.979219)">
            <g>
                <path
                    d="M 7.796875 -5.40625 C 7.796875 -4.414062 7.648438 -3.484375 7.359375 -2.609375 C 7.078125 -1.734375 6.703125 -1.070312 6.234375 -0.625 C 5.648438 -0.0507812 4.9375 0.234375 4.09375 0.234375 C 3.125 0.234375 2.328125 -0.140625 1.703125 -0.890625 C 1.316406 -1.347656 1 -2.003906 0.75 -2.859375 C 0.507812 -3.722656 0.390625 -4.601562 0.390625 -5.5 C 0.390625 -6.46875 0.535156 -7.382812 0.828125 -8.25 C 1.117188 -9.113281 1.5 -9.773438 1.96875 -10.234375 C 2.570312 -10.796875 3.300781 -11.078125 4.15625 -11.078125 C 5.226562 -11.078125 6.101562 -10.550781 6.78125 -9.5 C 7.457031 -8.457031 7.796875 -7.09375 7.796875 -5.40625 Z M 6.234375 -5.375 C 6.234375 -7.09375 6.050781 -8.398438 5.6875 -9.296875 C 5.320312 -10.203125 4.796875 -10.65625 4.109375 -10.65625 C 2.679688 -10.65625 1.96875 -8.890625 1.96875 -5.359375 C 1.96875 -1.921875 2.675781 -0.203125 4.09375 -0.203125 C 5.519531 -0.203125 6.234375 -1.925781 6.234375 -5.375 Z M 6.234375 -5.375 " />
            </g>
        </g>
    </g>
    <g fill="#c9862c" fill-opacity="1"
        transform="matrix(1, 0, 0, 1, 111.79855346679688, 40.489204406738274)">
        <g transform="translate(183.160854, 290.979219)">
            <g>
                <path
                    d="M 7.78125 -2.25 L 6.890625 0 L 0.484375 0 L 0.484375 -0.203125 L 3.40625 -3.296875 C 4.832031 -4.804688 5.546875 -6.226562 5.546875 -7.5625 C 5.546875 -8.25 5.332031 -8.800781 4.90625 -9.21875 C 4.476562 -9.644531 3.921875 -9.859375 3.234375 -9.859375 C 2.660156 -9.859375 2.203125 -9.703125 1.859375 -9.390625 C 1.515625 -9.085938 1.179688 -8.535156 0.859375 -7.734375 L 0.515625 -7.8125 C 0.753906 -8.832031 1.101562 -9.582031 1.5625 -10.0625 C 2.175781 -10.738281 2.960938 -11.078125 3.921875 -11.078125 C 4.773438 -11.078125 5.492188 -10.796875 6.078125 -10.234375 C 6.660156 -9.679688 6.953125 -8.992188 6.953125 -8.171875 C 6.953125 -6.941406 6.253906 -5.59375 4.859375 -4.125 L 2.09375 -1.25 L 6.015625 -1.25 C 6.390625 -1.25 6.664062 -1.3125 6.84375 -1.4375 C 7.019531 -1.5625 7.265625 -1.859375 7.578125 -2.328125 Z M 7.78125 -2.25 " />
            </g>
        </g>
    </g>
    <g fill="#c9862c" fill-opacity="1"
        transform="matrix(1, 0, 0, 1, 111.79855346679688, 40.489204406738274)">
        <g transform="translate(191.353718, 290.979219)">
            <g>
                <path
                    d="M 7.734375 -2.734375 L 6.0625 -2.734375 L 6.0625 0 L 4.796875 0 L 4.796875 -2.734375 L 0.203125 -2.734375 L 0.203125 -3.78125 L 5.34375 -11.078125 L 6.0625 -11.078125 L 6.0625 -3.78125 L 7.734375 -3.78125 Z M 4.78125 -3.78125 L 4.78125 -9.40625 L 0.859375 -3.78125 Z M 4.78125 -3.78125 " />
            </g>
        </g>
    </g>
    <g fill="#000000" fill-opacity="1"
        transform="matrix(1, 0, 0, 1, 111.79855346679688, 40.489204406738274)">
        <g transform="translate(217.429267, 272.213271)">
            <g>
                <path
                    d="M 10.3125 -3.53125 C 10.3125 -2.445312 9.898438 -1.535156 9.078125 -0.796875 C 8.265625 -0.0664062 7.25 0.296875 6.03125 0.296875 C 5.1875 0.296875 4.359375 0.132812 3.546875 -0.1875 C 3.128906 -0.34375 2.800781 -0.421875 2.5625 -0.421875 C 2.40625 -0.421875 2.269531 -0.351562 2.15625 -0.21875 C 2.050781 -0.0820312 1.988281 0.078125 1.96875 0.265625 L 1.515625 0.265625 L 0.875 -4.171875 L 1.359375 -4.171875 C 1.890625 -2.890625 2.492188 -1.953125 3.171875 -1.359375 C 3.859375 -0.765625 4.671875 -0.46875 5.609375 -0.46875 C 6.378906 -0.46875 7 -0.679688 7.46875 -1.109375 C 7.945312 -1.546875 8.1875 -2.113281 8.1875 -2.8125 C 8.1875 -3.332031 8.085938 -3.742188 7.890625 -4.046875 C 7.378906 -4.835938 6.335938 -5.660156 4.765625 -6.515625 C 3.585938 -7.128906 2.742188 -7.75 2.234375 -8.375 C 1.734375 -9.007812 1.484375 -9.742188 1.484375 -10.578125 C 1.484375 -11.734375 1.890625 -12.644531 2.703125 -13.3125 C 3.429688 -13.90625 4.222656 -14.203125 5.078125 -14.203125 C 5.773438 -14.203125 6.53125 -14.046875 7.34375 -13.734375 C 7.726562 -13.566406 8.039062 -13.484375 8.28125 -13.484375 C 8.632812 -13.484375 8.859375 -13.722656 8.953125 -14.203125 L 9.390625 -14.203125 L 9.84375 -9.71875 L 9.328125 -9.71875 C 9.046875 -10.769531 8.617188 -11.59375 8.046875 -12.1875 C 7.304688 -12.945312 6.453125 -13.328125 5.484375 -13.328125 C 4.828125 -13.328125 4.296875 -13.148438 3.890625 -12.796875 C 3.492188 -12.441406 3.296875 -11.976562 3.296875 -11.40625 C 3.296875 -10.832031 3.53125 -10.289062 4 -9.78125 C 4.476562 -9.28125 5.273438 -8.726562 6.390625 -8.125 C 7.773438 -7.375 8.773438 -6.632812 9.390625 -5.90625 C 10.003906 -5.1875 10.3125 -4.394531 10.3125 -3.53125 Z M 10.3125 -3.53125 " />
            </g>
        </g>
    </g>
    <g fill="#000000" fill-opacity="1"
        transform="matrix(1, 0, 0, 1, 111.79855346679688, 40.489204406738274)">
        <g transform="translate(229.105319, 272.213271)">
            <g>
                <path
                    d="M 13.84375 0 L 10.453125 0 L 5.453125 -6.46875 L 4.28125 -6.421875 L 4.28125 -2.28125 C 4.28125 -1.53125 4.390625 -1.039062 4.609375 -0.8125 C 4.835938 -0.59375 5.359375 -0.457031 6.171875 -0.40625 L 6.171875 0 L 0.359375 0 L 0.359375 -0.40625 C 1.140625 -0.457031 1.628906 -0.601562 1.828125 -0.84375 C 2.035156 -1.09375 2.140625 -1.648438 2.140625 -2.515625 L 2.140625 -11.609375 C 2.140625 -12.347656 2.035156 -12.828125 1.828125 -13.046875 C 1.628906 -13.265625 1.140625 -13.414062 0.359375 -13.5 L 0.359375 -13.90625 L 6.15625 -13.90625 C 7.132812 -13.90625 8.03125 -13.773438 8.84375 -13.515625 C 9.65625 -13.265625 10.265625 -12.925781 10.671875 -12.5 C 11.210938 -11.882812 11.484375 -11.117188 11.484375 -10.203125 C 11.484375 -9.171875 11.128906 -8.367188 10.421875 -7.796875 C 9.816406 -7.304688 8.90625 -6.941406 7.6875 -6.703125 L 12.015625 -1.390625 C 12.304688 -1.035156 12.582031 -0.785156 12.84375 -0.640625 C 13.101562 -0.503906 13.4375 -0.425781 13.84375 -0.40625 Z M 9.203125 -10.25 C 9.203125 -11.226562 8.890625 -11.953125 8.265625 -12.421875 C 7.640625 -12.890625 6.671875 -13.125 5.359375 -13.125 C 4.929688 -13.125 4.644531 -13.070312 4.5 -12.96875 C 4.351562 -12.863281 4.28125 -12.664062 4.28125 -12.375 L 4.28125 -7.203125 C 5.300781 -7.234375 6.054688 -7.289062 6.546875 -7.375 C 7.035156 -7.46875 7.519531 -7.648438 8 -7.921875 C 8.800781 -8.335938 9.203125 -9.113281 9.203125 -10.25 Z M 9.203125 -10.25 " />
            </g>
        </g>
    </g>
    <g fill="#000000" fill-opacity="1"
        transform="matrix(1, 0, 0, 1, 111.79855346679688, 40.489204406738274)">
        <g transform="translate(243.112371, 272.213271)">
            <g>
                <path
                    d="M 11.375 -10.09375 C 11.375 -9.394531 11.195312 -8.75 10.84375 -8.15625 C 10.488281 -7.5625 9.992188 -7.097656 9.359375 -6.765625 C 8.503906 -6.285156 7.28125 -6.046875 5.6875 -6.046875 C 5.269531 -6.046875 4.785156 -6.066406 4.234375 -6.109375 L 4.234375 -2.28125 C 4.234375 -1.519531 4.359375 -1.019531 4.609375 -0.78125 C 4.859375 -0.550781 5.394531 -0.425781 6.21875 -0.40625 L 6.21875 0 L 0.34375 0 L 0.34375 -0.40625 C 1.132812 -0.46875 1.625 -0.613281 1.8125 -0.84375 C 2 -1.082031 2.09375 -1.640625 2.09375 -2.515625 L 2.09375 -11.609375 C 2.09375 -12.367188 1.992188 -12.851562 1.796875 -13.0625 C 1.609375 -13.269531 1.125 -13.414062 0.34375 -13.5 L 0.34375 -13.90625 L 5.875 -13.90625 C 6.875 -13.90625 7.789062 -13.765625 8.625 -13.484375 C 9.46875 -13.210938 10.097656 -12.847656 10.515625 -12.390625 C 11.085938 -11.773438 11.375 -11.007812 11.375 -10.09375 Z M 9.09375 -9.96875 C 9.09375 -11.050781 8.753906 -11.847656 8.078125 -12.359375 C 7.410156 -12.867188 6.367188 -13.125 4.953125 -13.125 C 4.671875 -13.125 4.476562 -13.070312 4.375 -12.96875 C 4.28125 -12.875 4.234375 -12.6875 4.234375 -12.40625 L 4.234375 -6.953125 C 4.734375 -6.910156 5.132812 -6.890625 5.4375 -6.890625 C 7.875 -6.890625 9.09375 -7.914062 9.09375 -9.96875 Z M 9.09375 -9.96875 " />
            </g>
        </g>
    </g>
    <g fill="#000000" fill-opacity="1"
        transform="matrix(1, 0, 0, 1, 111.79855346679688, 40.489204406738274)">
        <g transform="translate(254.788422, 272.213271)">
            <g>
                <path
                    d="M 14.84375 -13.5 C 14.175781 -13.425781 13.71875 -13.300781 13.46875 -13.125 C 13.0625 -12.84375 12.859375 -12.070312 12.859375 -10.8125 L 12.859375 0.234375 L 12.5 0.234375 L 3.21875 -11.3125 L 3.21875 -3.09375 C 3.21875 -2.019531 3.34375 -1.3125 3.59375 -0.96875 C 3.84375 -0.632812 4.375 -0.445312 5.1875 -0.40625 L 5.1875 0 L 0.25 0 L 0.25 -0.40625 C 1.113281 -0.457031 1.664062 -0.644531 1.90625 -0.96875 C 2.15625 -1.300781 2.28125 -2.007812 2.28125 -3.09375 L 2.28125 -12.34375 C 1.863281 -12.832031 1.53125 -13.144531 1.28125 -13.28125 C 1.039062 -13.425781 0.695312 -13.5 0.25 -13.5 L 0.25 -13.90625 L 3.84375 -13.90625 L 11.921875 -3.734375 L 11.921875 -10.8125 C 11.921875 -12.101562 11.71875 -12.890625 11.3125 -13.171875 C 11.019531 -13.335938 10.550781 -13.445312 9.90625 -13.5 L 9.90625 -13.90625 L 14.84375 -13.90625 Z M 14.84375 -13.5 " />
            </g>
        </g>
    </g>
    <g fill="#000000" fill-opacity="1"
        transform="matrix(1, 0, 0, 1, 111.79855346679688, 40.489204406738274)">
        <g transform="translate(269.950481, 272.213271)">
            <g>
                <path
                    d="M 14.828125 0 L 9.46875 0 L 9.46875 -0.40625 C 10.039062 -0.40625 10.429688 -0.46875 10.640625 -0.59375 C 10.835938 -0.6875 10.9375 -0.851562 10.9375 -1.09375 C 10.9375 -1.425781 10.804688 -1.898438 10.546875 -2.515625 L 9.6875 -4.53125 L 4.171875 -4.53125 L 3.21875 -2.078125 C 3.101562 -1.785156 3.046875 -1.515625 3.046875 -1.265625 C 3.046875 -0.691406 3.519531 -0.40625 4.46875 -0.40625 L 4.46875 0 L 0.3125 0 L 0.3125 -0.40625 C 0.820312 -0.425781 1.210938 -0.617188 1.484375 -0.984375 C 1.765625 -1.359375 2.242188 -2.3125 2.921875 -3.84375 L 7.28125 -14.15625 L 7.703125 -14.15625 L 12.9375 -2.21875 C 13.300781 -1.4375 13.585938 -0.941406 13.796875 -0.734375 C 14.003906 -0.535156 14.347656 -0.425781 14.828125 -0.40625 Z M 9.390625 -5.390625 L 6.953125 -11.171875 L 4.53125 -5.390625 Z M 9.390625 -5.390625 " />
            </g>
        </g>
    </g>
    <path stroke-linecap="butt" fill="none" stroke-linejoin="miter"
        d="M 285.568 310.138 L 347.802 310.138" stroke="#000000" stroke-width="1" stroke-opacity="1"
        stroke-miterlimit="4" style="transform-origin: 316.685px 310.138px;"
        transform="matrix(0.000001581209, -1, 0.999997661744, 0, 0, 0.000149648356)" />
    <path stroke-linecap="butt" fill="none" stroke-linejoin="miter"
        d="M 237.623 310.138 L 299.857 310.138" stroke="#000000" stroke-width="1" stroke-opacity="1"
        stroke-miterlimit="4" style="transform-origin: 268.74px 310.138px;"
        transform="matrix(-1.82397e-7, -1, 1, 0, -0.000299297061, 0)" />
</svg>