<?xml version="1.0" encoding="utf-8"?>
<svg viewBox="90.8485 91.9547 218.9968 46.7188" width="218.9968" height="46.7188"
    xmlns="http://www.w3.org/2000/svg">
    <g fill="#000000" fill-opacity="1">
        <g transform="translate(91.926635, 121.189092)">
            <g>
                <path
                    d="M 33.921875 -11.171875 C 34.097656 -11.148438 34.34375 -11.109375 34.65625 -11.046875 C 34.976562 -10.992188 35.328125 -10.894531 35.703125 -10.75 C 36.085938 -10.613281 36.472656 -10.421875 36.859375 -10.171875 C 37.242188 -9.921875 37.597656 -9.582031 37.921875 -9.15625 C 38.242188 -8.738281 38.503906 -8.222656 38.703125 -7.609375 C 38.898438 -6.992188 39 -6.257812 39 -5.40625 C 39 -4.46875 38.828125 -3.550781 38.484375 -2.65625 C 38.140625 -1.769531 37.660156 -0.976562 37.046875 -0.28125 C 36.429688 0.414062 35.703125 0.976562 34.859375 1.40625 C 34.015625 1.832031 33.097656 2.046875 32.109375 2.046875 C 31.085938 2.046875 30.203125 1.890625 29.453125 1.578125 C 28.710938 1.265625 28.101562 0.820312 27.625 0.25 C 27.144531 -0.3125 26.785156 -0.988281 26.546875 -1.78125 C 26.316406 -2.582031 26.203125 -3.472656 26.203125 -4.453125 C 26.203125 -5.484375 26.375 -6.816406 26.71875 -8.453125 C 27.070312 -10.085938 27.710938 -11.96875 28.640625 -14.09375 C 27.171875 -13.488281 25.71875 -12.945312 24.28125 -12.46875 C 22.84375 -11.988281 21.410156 -11.539062 19.984375 -11.125 C 19.222656 -9.957031 18.378906 -8.8125 17.453125 -7.6875 C 16.535156 -6.570312 15.578125 -5.519531 14.578125 -4.53125 C 13.578125 -3.550781 12.546875 -2.648438 11.484375 -1.828125 C 10.421875 -1.003906 9.367188 -0.296875 8.328125 0.296875 C 7.296875 0.898438 6.289062 1.367188 5.3125 1.703125 C 4.34375 2.035156 3.4375 2.203125 2.59375 2.203125 C 1.832031 2.203125 1.210938 2.09375 0.734375 1.875 C 0.265625 1.65625 -0.0976562 1.390625 -0.359375 1.078125 C -0.628906 0.765625 -0.816406 0.421875 -0.921875 0.046875 C -1.023438 -0.316406 -1.078125 -0.648438 -1.078125 -0.953125 C -1.078125 -1.335938 -0.984375 -1.765625 -0.796875 -2.234375 C -0.609375 -2.703125 -0.328125 -3.175781 0.046875 -3.65625 C 0.429688 -4.144531 0.914062 -4.625 1.5 -5.09375 C 2.09375 -5.5625 2.785156 -6 3.578125 -6.40625 C 4.804688 -7.03125 6.023438 -7.59375 7.234375 -8.09375 C 8.453125 -8.59375 9.660156 -9.046875 10.859375 -9.453125 C 12.054688 -9.867188 13.242188 -10.253906 14.421875 -10.609375 C 15.597656 -10.972656 16.773438 -11.328125 17.953125 -11.671875 C 18.578125 -12.773438 19.148438 -13.890625 19.671875 -15.015625 C 20.203125 -16.148438 20.660156 -17.253906 21.046875 -18.328125 C 21.441406 -19.398438 21.75 -20.425781 21.96875 -21.40625 C 22.195312 -22.382812 22.3125 -23.273438 22.3125 -24.078125 C 22.3125 -24.691406 22.210938 -25.253906 22.015625 -25.765625 C 21.816406 -26.273438 21.535156 -26.710938 21.171875 -27.078125 C 20.804688 -27.441406 20.363281 -27.722656 19.84375 -27.921875 C 19.320312 -28.128906 18.734375 -28.234375 18.078125 -28.234375 C 16.878906 -28.234375 15.734375 -28.085938 14.640625 -27.796875 C 13.546875 -27.515625 12.523438 -27.128906 11.578125 -26.640625 C 10.628906 -26.160156 9.773438 -25.59375 9.015625 -24.9375 C 8.253906 -24.289062 7.601562 -23.601562 7.0625 -22.875 C 6.519531 -22.144531 6.101562 -21.398438 5.8125 -20.640625 C 5.519531 -19.878906 5.375 -19.140625 5.375 -18.421875 C 5.375 -17.703125 5.519531 -17.109375 5.8125 -16.640625 C 6.113281 -16.179688 6.492188 -15.8125 6.953125 -15.53125 C 7.421875 -15.257812 7.914062 -15.066406 8.4375 -14.953125 C 8.96875 -14.847656 9.46875 -14.796875 9.9375 -14.796875 C 10.457031 -14.796875 10.957031 -14.835938 11.4375 -14.921875 C 11.914062 -15.015625 12.335938 -15.113281 12.703125 -15.21875 C 13.066406 -15.320312 13.359375 -15.421875 13.578125 -15.515625 C 13.804688 -15.617188 13.921875 -15.671875 13.921875 -15.671875 L 14.34375 -14.75 C 14.28125 -14.707031 14.097656 -14.628906 13.796875 -14.515625 C 13.492188 -14.410156 13.097656 -14.296875 12.609375 -14.171875 C 12.128906 -14.046875 11.566406 -13.929688 10.921875 -13.828125 C 10.273438 -13.734375 9.570312 -13.6875 8.8125 -13.6875 C 8.039062 -13.6875 7.304688 -13.773438 6.609375 -13.953125 C 5.910156 -14.128906 5.300781 -14.410156 4.78125 -14.796875 C 4.257812 -15.179688 3.847656 -15.675781 3.546875 -16.28125 C 3.253906 -16.894531 3.109375 -17.632812 3.109375 -18.5 C 3.109375 -19.488281 3.332031 -20.4375 3.78125 -21.34375 C 4.238281 -22.25 4.847656 -23.097656 5.609375 -23.890625 C 6.378906 -24.691406 7.265625 -25.414062 8.265625 -26.0625 C 9.273438 -26.71875 10.332031 -27.28125 11.4375 -27.75 C 12.539062 -28.226562 13.65625 -28.59375 14.78125 -28.84375 C 15.914062 -29.101562 16.992188 -29.234375 18.015625 -29.234375 C 18.953125 -29.234375 19.804688 -29.101562 20.578125 -28.84375 C 21.347656 -28.59375 22.015625 -28.210938 22.578125 -27.703125 C 23.140625 -27.203125 23.578125 -26.570312 23.890625 -25.8125 C 24.210938 -25.0625 24.375 -24.191406 24.375 -23.203125 C 24.375 -22.359375 24.269531 -21.457031 24.0625 -20.5 C 23.851562 -19.539062 23.582031 -18.585938 23.25 -17.640625 C 22.925781 -16.691406 22.550781 -15.773438 22.125 -14.890625 C 21.707031 -14.015625 21.273438 -13.222656 20.828125 -12.515625 C 22.253906 -12.941406 23.664062 -13.382812 25.0625 -13.84375 C 26.457031 -14.3125 27.863281 -14.851562 29.28125 -15.46875 C 30.695312 -18.226562 32.039062 -20.5 33.3125 -22.28125 C 34.59375 -24.070312 35.78125 -25.476562 36.875 -26.5 C 37.96875 -27.53125 38.960938 -28.242188 39.859375 -28.640625 C 40.753906 -29.035156 41.53125 -29.234375 42.1875 -29.234375 C 42.9375 -29.234375 43.519531 -29.03125 43.9375 -28.625 C 44.363281 -28.21875 44.578125 -27.648438 44.578125 -26.921875 C 44.578125 -26.085938 44.265625 -25.203125 43.640625 -24.265625 C 43.023438 -23.328125 42.1875 -22.414062 41.125 -21.53125 C 39.539062 -20.21875 37.96875 -19.066406 36.40625 -18.078125 C 34.84375 -17.097656 33.269531 -16.222656 31.6875 -15.453125 C 30.957031 -13.910156 30.359375 -12.515625 29.890625 -11.265625 C 29.421875 -10.023438 29.046875 -8.914062 28.765625 -7.9375 C 28.492188 -6.957031 28.300781 -6.082031 28.1875 -5.3125 C 28.070312 -4.539062 28.015625 -3.863281 28.015625 -3.28125 C 28.015625 -2.539062 28.113281 -1.894531 28.3125 -1.34375 C 28.519531 -0.800781 28.804688 -0.351562 29.171875 0 C 29.535156 0.351562 29.96875 0.613281 30.46875 0.78125 C 30.96875 0.957031 31.515625 1.046875 32.109375 1.046875 C 32.898438 1.046875 33.648438 0.875 34.359375 0.53125 C 35.078125 0.195312 35.703125 -0.257812 36.234375 -0.84375 C 36.773438 -1.425781 37.203125 -2.109375 37.515625 -2.890625 C 37.828125 -3.679688 37.984375 -4.523438 37.984375 -5.421875 C 37.984375 -6.191406 37.890625 -6.84375 37.703125 -7.375 C 37.515625 -7.914062 37.273438 -8.359375 36.984375 -8.703125 C 36.703125 -9.054688 36.390625 -9.332031 36.046875 -9.53125 C 35.703125 -9.726562 35.378906 -9.875 35.078125 -9.96875 C 34.773438 -10.070312 34.507812 -10.132812 34.28125 -10.15625 C 34.0625 -10.175781 33.925781 -10.1875 33.875 -10.1875 Z M 3.453125 0.84375 C 4.492188 0.84375 5.601562 0.5625 6.78125 0 C 7.957031 -0.5625 9.144531 -1.335938 10.34375 -2.328125 C 11.539062 -3.316406 12.71875 -4.488281 13.875 -5.84375 C 15.03125 -7.195312 16.109375 -8.664062 17.109375 -10.25 L 15.90625 -9.90625 C 15.09375 -9.664062 14.164062 -9.367188 13.125 -9.015625 C 12.09375 -8.671875 11.039062 -8.273438 9.96875 -7.828125 C 8.894531 -7.378906 7.84375 -6.890625 6.8125 -6.359375 C 5.78125 -5.828125 4.863281 -5.257812 4.0625 -4.65625 C 3.269531 -4.0625 2.628906 -3.425781 2.140625 -2.75 C 1.660156 -2.082031 1.421875 -1.382812 1.421875 -0.65625 C 1.421875 -0.164062 1.609375 0.203125 1.984375 0.453125 C 2.359375 0.710938 2.847656 0.84375 3.453125 0.84375 Z M 32.40625 -16.953125 C 33.75 -17.640625 35.085938 -18.421875 36.421875 -19.296875 C 37.765625 -20.171875 39.128906 -21.175781 40.515625 -22.3125 C 41.078125 -22.769531 41.550781 -23.222656 41.9375 -23.671875 C 42.332031 -24.117188 42.648438 -24.539062 42.890625 -24.9375 C 43.128906 -25.332031 43.300781 -25.695312 43.40625 -26.03125 C 43.519531 -26.375 43.578125 -26.675781 43.578125 -26.9375 C 43.578125 -27.3125 43.460938 -27.625 43.234375 -27.875 C 43.015625 -28.132812 42.664062 -28.265625 42.1875 -28.265625 C 41.65625 -28.265625 41.109375 -28.113281 40.546875 -27.8125 C 39.992188 -27.507812 39.429688 -27.09375 38.859375 -26.5625 C 38.285156 -26.03125 37.710938 -25.398438 37.140625 -24.671875 C 36.578125 -23.953125 36.019531 -23.175781 35.46875 -22.34375 C 34.914062 -21.507812 34.378906 -20.628906 33.859375 -19.703125 C 33.347656 -18.785156 32.863281 -17.867188 32.40625 -16.953125 Z M 32.40625 -16.953125 " />
            </g>
        </g>
    </g>
    <g fill="#000000" fill-opacity="1">
        <g transform="translate(134.193954, 121.189092)">
            <g>
                <path
                    d="M 15.25 -12.75 C 15.082031 -12.414062 14.847656 -11.976562 14.546875 -11.4375 C 14.242188 -10.90625 13.921875 -10.316406 13.578125 -9.671875 C 13.234375 -9.023438 12.882812 -8.347656 12.53125 -7.640625 C 12.175781 -6.941406 11.851562 -6.253906 11.5625 -5.578125 C 11.28125 -4.910156 11.046875 -4.28125 10.859375 -3.6875 C 10.671875 -3.09375 10.578125 -2.59375 10.578125 -2.1875 C 10.578125 -1.78125 10.65625 -1.515625 10.8125 -1.390625 C 10.976562 -1.265625 11.191406 -1.203125 11.453125 -1.203125 C 11.816406 -1.203125 12.191406 -1.3125 12.578125 -1.53125 C 12.972656 -1.75 13.359375 -2.03125 13.734375 -2.375 C 14.109375 -2.71875 14.472656 -3.109375 14.828125 -3.546875 C 15.191406 -3.984375 15.53125 -4.421875 15.84375 -4.859375 C 16.15625 -5.296875 16.4375 -5.71875 16.6875 -6.125 C 16.945312 -6.53125 17.164062 -6.875 17.34375 -7.15625 L 18.046875 -6.609375 C 17.828125 -6.203125 17.566406 -5.757812 17.265625 -5.28125 C 16.972656 -4.8125 16.648438 -4.335938 16.296875 -3.859375 C 15.953125 -3.378906 15.570312 -2.914062 15.15625 -2.46875 C 14.75 -2.019531 14.316406 -1.625 13.859375 -1.28125 C 13.410156 -0.9375 12.9375 -0.660156 12.4375 -0.453125 C 11.945312 -0.253906 11.4375 -0.15625 10.90625 -0.15625 C 10.144531 -0.15625 9.582031 -0.382812 9.21875 -0.84375 C 8.863281 -1.300781 8.6875 -1.894531 8.6875 -2.625 C 8.6875 -2.675781 8.6875 -2.785156 8.6875 -2.953125 C 8.695312 -3.128906 8.71875 -3.269531 8.75 -3.375 C 8.101562 -2.570312 7.488281 -1.90625 6.90625 -1.375 C 6.332031 -0.851562 5.769531 -0.4375 5.21875 -0.125 C 4.675781 0.175781 4.148438 0.382812 3.640625 0.5 C 3.140625 0.625 2.660156 0.6875 2.203125 0.6875 C 1.710938 0.6875 1.253906 0.601562 0.828125 0.4375 C 0.398438 0.28125 0.0234375 0.0507812 -0.296875 -0.25 C -0.617188 -0.550781 -0.875 -0.925781 -1.0625 -1.375 C -1.25 -1.820312 -1.34375 -2.34375 -1.34375 -2.9375 C -1.34375 -3.664062 -1.175781 -4.5 -0.84375 -5.4375 C -0.519531 -6.375 0.0507812 -7.382812 0.875 -8.46875 C 1.582031 -9.40625 2.316406 -10.191406 3.078125 -10.828125 C 3.835938 -11.472656 4.582031 -11.988281 5.3125 -12.375 C 6.050781 -12.757812 6.753906 -13.035156 7.421875 -13.203125 C 8.085938 -13.367188 8.679688 -13.453125 9.203125 -13.453125 C 10.378906 -13.453125 11.265625 -13.257812 11.859375 -12.875 C 12.460938 -12.488281 12.828125 -11.890625 12.953125 -11.078125 C 13.210938 -11.398438 13.484375 -11.71875 13.765625 -12.03125 C 14.046875 -12.351562 14.332031 -12.679688 14.625 -13.015625 Z M 9.359375 -5.46875 C 9.523438 -5.726562 9.726562 -6.066406 9.96875 -6.484375 C 10.207031 -6.898438 10.460938 -7.328125 10.734375 -7.765625 C 11.003906 -8.210938 11.265625 -8.640625 11.515625 -9.046875 C 11.773438 -9.453125 12 -9.796875 12.1875 -10.078125 C 12.1875 -10.191406 12.171875 -10.378906 12.140625 -10.640625 C 12.109375 -10.898438 12.019531 -11.160156 11.875 -11.421875 C 11.738281 -11.679688 11.515625 -11.90625 11.203125 -12.09375 C 10.898438 -12.289062 10.476562 -12.390625 9.9375 -12.390625 C 9.539062 -12.390625 9.09375 -12.328125 8.59375 -12.203125 C 8.101562 -12.078125 7.578125 -11.867188 7.015625 -11.578125 C 6.460938 -11.296875 5.890625 -10.914062 5.296875 -10.4375 C 4.710938 -9.96875 4.128906 -9.382812 3.546875 -8.6875 C 2.660156 -7.625 1.976562 -6.554688 1.5 -5.484375 C 1.019531 -4.421875 0.78125 -3.460938 0.78125 -2.609375 C 0.78125 -1.878906 0.945312 -1.316406 1.28125 -0.921875 C 1.613281 -0.523438 2.085938 -0.328125 2.703125 -0.328125 C 3.410156 -0.328125 4.066406 -0.484375 4.671875 -0.796875 C 5.285156 -1.109375 5.859375 -1.515625 6.390625 -2.015625 C 6.929688 -2.515625 7.445312 -3.066406 7.9375 -3.671875 C 8.425781 -4.273438 8.898438 -4.875 9.359375 -5.46875 Z M 9.359375 -5.46875 " />
            </g>
        </g>
    </g>
    <g fill="#000000" fill-opacity="1">
        <g transform="translate(151.541766, 121.189092)">
            <g>
                <path
                    d="M 12.09375 -6.609375 C 11.90625 -6.328125 11.679688 -5.945312 11.421875 -5.46875 C 11.160156 -4.988281 10.851562 -4.472656 10.5 -3.921875 C 10.15625 -3.367188 9.773438 -2.800781 9.359375 -2.21875 C 8.953125 -1.644531 8.5 -1.128906 8 -0.671875 C 7.507812 -0.210938 6.976562 0.160156 6.40625 0.453125 C 5.832031 0.753906 5.21875 0.90625 4.5625 0.90625 C 4.207031 0.90625 3.867188 0.847656 3.546875 0.734375 C 3.222656 0.628906 2.941406 0.460938 2.703125 0.234375 C 2.460938 0.00390625 2.269531 -0.273438 2.125 -0.609375 C 1.988281 -0.953125 1.921875 -1.359375 1.921875 -1.828125 C 1.921875 -2.453125 2.046875 -3.101562 2.296875 -3.78125 C 2.546875 -4.46875 2.832031 -5.128906 3.15625 -5.765625 C 3.488281 -6.410156 3.820312 -7 4.15625 -7.53125 C 4.488281 -8.0625 4.734375 -8.484375 4.890625 -8.796875 C 5.046875 -9.117188 5.125 -9.394531 5.125 -9.625 C 5.125 -9.789062 5.066406 -9.9375 4.953125 -10.0625 C 4.847656 -10.1875 4.710938 -10.3125 4.546875 -10.4375 C 4.390625 -10.5625 4.222656 -10.691406 4.046875 -10.828125 C 3.878906 -10.960938 3.738281 -11.125 3.625 -11.3125 C 3.300781 -10.800781 2.972656 -10.285156 2.640625 -9.765625 C 2.347656 -9.316406 2.03125 -8.8125 1.6875 -8.25 C 1.34375 -7.695312 1.007812 -7.148438 0.6875 -6.609375 L 0 -7.15625 L 4.109375 -13.578125 L 4.65625 -13.28125 C 4.632812 -13.207031 4.59375 -13.085938 4.53125 -12.921875 C 4.476562 -12.753906 4.453125 -12.578125 4.453125 -12.390625 C 4.453125 -12.242188 4.472656 -12.101562 4.515625 -11.96875 C 4.554688 -11.832031 4.648438 -11.707031 4.796875 -11.59375 C 5.304688 -11.132812 5.707031 -10.78125 6 -10.53125 C 6.289062 -10.28125 6.503906 -10.082031 6.640625 -9.9375 C 6.773438 -9.789062 6.859375 -9.671875 6.890625 -9.578125 C 6.921875 -9.484375 6.9375 -9.359375 6.9375 -9.203125 C 6.9375 -9.046875 6.910156 -8.859375 6.859375 -8.640625 C 6.804688 -8.429688 6.71875 -8.171875 6.59375 -7.859375 C 6.476562 -7.554688 6.316406 -7.195312 6.109375 -6.78125 C 5.898438 -6.363281 5.632812 -5.878906 5.3125 -5.328125 C 5.113281 -4.992188 4.921875 -4.65625 4.734375 -4.3125 C 4.554688 -3.976562 4.394531 -3.640625 4.25 -3.296875 C 4.101562 -2.953125 3.984375 -2.609375 3.890625 -2.265625 C 3.804688 -1.921875 3.765625 -1.585938 3.765625 -1.265625 C 3.765625 -1.023438 3.796875 -0.828125 3.859375 -0.671875 C 3.929688 -0.523438 4.023438 -0.414062 4.140625 -0.34375 C 4.253906 -0.269531 4.378906 -0.21875 4.515625 -0.1875 C 4.648438 -0.164062 4.78125 -0.15625 4.90625 -0.15625 C 5.332031 -0.15625 5.75 -0.28125 6.15625 -0.53125 C 6.570312 -0.78125 6.984375 -1.101562 7.390625 -1.5 C 7.796875 -1.894531 8.1875 -2.34375 8.5625 -2.84375 C 8.9375 -3.351562 9.296875 -3.867188 9.640625 -4.390625 C 9.984375 -4.910156 10.300781 -5.410156 10.59375 -5.890625 C 10.894531 -6.367188 11.160156 -6.789062 11.390625 -7.15625 Z M 12.09375 -6.609375 " />
            </g>
        </g>
    </g>
    <g fill="#000000" fill-opacity="1">
        <g transform="translate(162.928064, 121.189092)">
            <g>
                <path
                    d="M 15.953125 -10.4375 C 16.316406 -10.863281 16.695312 -11.257812 17.09375 -11.625 C 17.5 -12 17.898438 -12.320312 18.296875 -12.59375 C 18.691406 -12.863281 19.082031 -13.070312 19.46875 -13.21875 C 19.851562 -13.363281 20.226562 -13.4375 20.59375 -13.4375 C 20.875 -13.4375 21.148438 -13.390625 21.421875 -13.296875 C 21.703125 -13.203125 21.945312 -13.054688 22.15625 -12.859375 C 22.375 -12.660156 22.546875 -12.40625 22.671875 -12.09375 C 22.804688 -11.789062 22.875 -11.425781 22.875 -11 C 22.875 -10.382812 22.789062 -9.78125 22.625 -9.1875 C 22.457031 -8.59375 22.242188 -8.015625 21.984375 -7.453125 C 21.734375 -6.890625 21.460938 -6.347656 21.171875 -5.828125 C 20.890625 -5.304688 20.617188 -4.804688 20.359375 -4.328125 C 20.109375 -3.847656 19.898438 -3.390625 19.734375 -2.953125 C 19.566406 -2.523438 19.484375 -2.132812 19.484375 -1.78125 C 19.484375 -1.5 19.554688 -1.296875 19.703125 -1.171875 C 19.847656 -1.054688 20.003906 -1 20.171875 -1 C 20.503906 -1 20.894531 -1.1875 21.34375 -1.5625 C 21.800781 -1.945312 22.28125 -2.441406 22.78125 -3.046875 C 23.28125 -3.648438 23.78125 -4.3125 24.28125 -5.03125 C 24.789062 -5.75 25.273438 -6.457031 25.734375 -7.15625 L 26.421875 -6.609375 C 26.253906 -6.347656 26.039062 -5.992188 25.78125 -5.546875 C 25.519531 -5.109375 25.210938 -4.632812 24.859375 -4.125 C 24.515625 -3.625 24.140625 -3.113281 23.734375 -2.59375 C 23.328125 -2.082031 22.894531 -1.617188 22.4375 -1.203125 C 21.988281 -0.785156 21.519531 -0.445312 21.03125 -0.1875 C 20.539062 0.0703125 20.054688 0.203125 19.578125 0.203125 C 19.304688 0.203125 19.046875 0.164062 18.796875 0.09375 C 18.546875 0.0195312 18.320312 -0.0976562 18.125 -0.265625 C 17.9375 -0.441406 17.785156 -0.671875 17.671875 -0.953125 C 17.554688 -1.234375 17.5 -1.582031 17.5 -2 C 17.5 -2.5625 17.59375 -3.109375 17.78125 -3.640625 C 17.976562 -4.179688 18.222656 -4.710938 18.515625 -5.234375 C 18.816406 -5.753906 19.132812 -6.273438 19.46875 -6.796875 C 19.8125 -7.316406 20.128906 -7.832031 20.421875 -8.34375 C 20.710938 -8.851562 20.953125 -9.363281 21.140625 -9.875 C 21.335938 -10.394531 21.4375 -10.925781 21.4375 -11.46875 C 21.4375 -11.738281 21.382812 -11.953125 21.28125 -12.109375 C 21.175781 -12.265625 20.984375 -12.34375 20.703125 -12.34375 C 20.253906 -12.34375 19.78125 -12.160156 19.28125 -11.796875 C 18.789062 -11.429688 18.273438 -10.941406 17.734375 -10.328125 C 17.191406 -9.710938 16.640625 -9 16.078125 -8.1875 C 15.523438 -7.382812 14.96875 -6.53125 14.40625 -5.625 C 13.851562 -4.726562 13.300781 -3.816406 12.75 -2.890625 C 12.207031 -1.960938 11.691406 -1.066406 11.203125 -0.203125 L 9.59375 -1.046875 C 10.269531 -2.441406 10.90625 -3.6875 11.5 -4.78125 C 12.09375 -5.882812 12.613281 -6.878906 13.0625 -7.765625 C 13.507812 -8.660156 13.859375 -9.472656 14.109375 -10.203125 C 14.367188 -10.941406 14.5 -11.640625 14.5 -12.296875 C 14.5 -12.421875 14.484375 -12.550781 14.453125 -12.6875 C 14.429688 -12.820312 14.378906 -12.9375 14.296875 -13.03125 C 14.222656 -13.132812 14.125 -13.222656 14 -13.296875 C 13.882812 -13.367188 13.726562 -13.40625 13.53125 -13.40625 C 13.101562 -13.40625 12.664062 -13.203125 12.21875 -12.796875 C 11.769531 -12.390625 11.296875 -11.835938 10.796875 -11.140625 C 10.296875 -10.453125 9.757812 -9.644531 9.1875 -8.71875 C 8.625 -7.789062 8.007812 -6.804688 7.34375 -5.765625 C 6.6875 -4.734375 5.972656 -3.671875 5.203125 -2.578125 C 4.441406 -1.484375 3.609375 -0.425781 2.703125 0.59375 L 1.375 -0.28125 C 1.789062 -0.894531 2.222656 -1.546875 2.671875 -2.234375 C 3.128906 -2.921875 3.578125 -3.613281 4.015625 -4.3125 C 4.453125 -5.019531 4.875 -5.71875 5.28125 -6.40625 C 5.6875 -7.101562 6.039062 -7.765625 6.34375 -8.390625 C 6.65625 -9.023438 6.898438 -9.601562 7.078125 -10.125 C 7.253906 -10.644531 7.34375 -11.09375 7.34375 -11.46875 C 7.34375 -11.894531 7.234375 -12.203125 7.015625 -12.390625 C 6.796875 -12.585938 6.515625 -12.6875 6.171875 -12.6875 C 5.765625 -12.6875 5.363281 -12.539062 4.96875 -12.25 C 4.582031 -11.957031 4.175781 -11.539062 3.75 -11 C 3.320312 -10.46875 2.859375 -9.828125 2.359375 -9.078125 C 1.867188 -8.328125 1.3125 -7.503906 0.6875 -6.609375 L 0 -7.15625 C 0.675781 -8.226562 1.285156 -9.171875 1.828125 -9.984375 C 2.367188 -10.804688 2.882812 -11.488281 3.375 -12.03125 C 3.863281 -12.582031 4.347656 -13 4.828125 -13.28125 C 5.304688 -13.5625 5.828125 -13.703125 6.390625 -13.703125 C 6.554688 -13.703125 6.769531 -13.671875 7.03125 -13.609375 C 7.289062 -13.546875 7.546875 -13.429688 7.796875 -13.265625 C 8.054688 -13.097656 8.285156 -12.867188 8.484375 -12.578125 C 8.679688 -12.285156 8.800781 -11.910156 8.84375 -11.453125 C 9.550781 -12.367188 10.296875 -13.097656 11.078125 -13.640625 C 11.859375 -14.191406 12.59375 -14.46875 13.28125 -14.46875 C 13.78125 -14.46875 14.203125 -14.367188 14.546875 -14.171875 C 14.890625 -13.972656 15.164062 -13.710938 15.375 -13.390625 C 15.59375 -13.078125 15.75 -12.71875 15.84375 -12.3125 C 15.9375 -11.914062 15.984375 -11.507812 15.984375 -11.09375 C 15.984375 -11 15.976562 -10.894531 15.96875 -10.78125 C 15.96875 -10.664062 15.960938 -10.550781 15.953125 -10.4375 Z M 15.953125 -10.4375 " />
            </g>
        </g>
    </g>
    <g fill="#000000" fill-opacity="1">
        <g transform="translate(188.652664, 121.189092)">
            <g>
                <path
                    d="M 10.8125 -5.21875 C 10.863281 -5.207031 10.914062 -5.203125 10.96875 -5.203125 C 11.019531 -5.203125 11.078125 -5.203125 11.140625 -5.203125 C 11.492188 -5.203125 11.816406 -5.234375 12.109375 -5.296875 C 12.410156 -5.367188 12.6875 -5.476562 12.9375 -5.625 C 13.1875 -5.78125 13.425781 -5.984375 13.65625 -6.234375 C 13.882812 -6.484375 14.109375 -6.789062 14.328125 -7.15625 L 15.015625 -6.609375 C 14.398438 -5.742188 13.765625 -5.140625 13.109375 -4.796875 C 12.460938 -4.453125 11.773438 -4.28125 11.046875 -4.28125 C 10.773438 -4.28125 10.535156 -4.304688 10.328125 -4.359375 C 9.785156 -3.429688 9.195312 -2.644531 8.5625 -2 C 7.9375 -1.351562 7.296875 -0.828125 6.640625 -0.421875 C 5.992188 -0.015625 5.351562 0.28125 4.71875 0.46875 C 4.082031 0.65625 3.488281 0.75 2.9375 0.75 C 2.375 0.75 1.851562 0.648438 1.375 0.453125 C 0.894531 0.253906 0.476562 -0.0234375 0.125 -0.390625 C -0.21875 -0.765625 -0.484375 -1.207031 -0.671875 -1.71875 C -0.859375 -2.238281 -0.953125 -2.816406 -0.953125 -3.453125 C -0.953125 -4.085938 -0.847656 -4.738281 -0.640625 -5.40625 C -0.441406 -6.070312 -0.171875 -6.726562 0.171875 -7.375 C 0.523438 -8.03125 0.9375 -8.660156 1.40625 -9.265625 C 1.882812 -9.878906 2.398438 -10.445312 2.953125 -10.96875 C 3.503906 -11.488281 4.070312 -11.957031 4.65625 -12.375 C 5.25 -12.800781 5.835938 -13.148438 6.421875 -13.421875 L 7.03125 -12.609375 C 6.351562 -12.128906 5.664062 -11.515625 4.96875 -10.765625 C 4.28125 -10.023438 3.648438 -9.210938 3.078125 -8.328125 C 2.503906 -7.453125 2.035156 -6.535156 1.671875 -5.578125 C 1.304688 -4.628906 1.125 -3.707031 1.125 -2.8125 C 1.125 -2.007812 1.300781 -1.382812 1.65625 -0.9375 C 2.019531 -0.5 2.566406 -0.28125 3.296875 -0.28125 C 3.859375 -0.28125 4.414062 -0.394531 4.96875 -0.625 C 5.519531 -0.863281 6.054688 -1.179688 6.578125 -1.578125 C 7.097656 -1.972656 7.597656 -2.441406 8.078125 -2.984375 C 8.566406 -3.523438 9.03125 -4.101562 9.46875 -4.71875 C 9.101562 -4.9375 8.78125 -5.226562 8.5 -5.59375 C 8.21875 -5.957031 7.976562 -6.367188 7.78125 -6.828125 C 7.59375 -7.296875 7.445312 -7.796875 7.34375 -8.328125 C 7.25 -8.867188 7.203125 -9.421875 7.203125 -9.984375 C 7.203125 -10.546875 7.269531 -11.078125 7.40625 -11.578125 C 7.550781 -12.078125 7.75 -12.515625 8 -12.890625 C 8.25 -13.265625 8.539062 -13.5625 8.875 -13.78125 C 9.207031 -14 9.570312 -14.109375 9.96875 -14.109375 C 10.320312 -14.109375 10.640625 -14.015625 10.921875 -13.828125 C 11.203125 -13.648438 11.4375 -13.394531 11.625 -13.0625 C 11.820312 -12.738281 11.972656 -12.351562 12.078125 -11.90625 C 12.179688 -11.457031 12.234375 -10.976562 12.234375 -10.46875 C 12.234375 -10.082031 12.203125 -9.660156 12.140625 -9.203125 C 12.078125 -8.742188 11.984375 -8.28125 11.859375 -7.8125 C 11.734375 -7.34375 11.582031 -6.878906 11.40625 -6.421875 C 11.238281 -5.972656 11.039062 -5.570312 10.8125 -5.21875 Z M 8.203125 -9.984375 C 8.203125 -9.617188 8.234375 -9.21875 8.296875 -8.78125 C 8.359375 -8.34375 8.457031 -7.921875 8.59375 -7.515625 C 8.738281 -7.109375 8.921875 -6.726562 9.140625 -6.375 C 9.359375 -6.019531 9.628906 -5.742188 9.953125 -5.546875 C 10.179688 -5.992188 10.375 -6.445312 10.53125 -6.90625 C 10.695312 -7.375 10.832031 -7.828125 10.9375 -8.265625 C 11.039062 -8.703125 11.113281 -9.109375 11.15625 -9.484375 C 11.207031 -9.859375 11.234375 -10.1875 11.234375 -10.46875 C 11.234375 -10.851562 11.203125 -11.203125 11.140625 -11.515625 C 11.078125 -11.835938 10.988281 -12.117188 10.875 -12.359375 C 10.769531 -12.597656 10.632812 -12.78125 10.46875 -12.90625 C 10.3125 -13.039062 10.140625 -13.109375 9.953125 -13.109375 C 9.691406 -13.109375 9.453125 -13.019531 9.234375 -12.84375 C 9.023438 -12.675781 8.84375 -12.445312 8.6875 -12.15625 C 8.53125 -11.875 8.410156 -11.546875 8.328125 -11.171875 C 8.242188 -10.796875 8.203125 -10.398438 8.203125 -9.984375 Z M 8.203125 -9.984375 " />
            </g>
        </g>
    </g>
    <g fill="#000000" fill-opacity="1">
        <g transform="translate(202.971796, 121.189092)">
            <g>
                <path
                    d="M 16.015625 -9.953125 C 16.015625 -9.398438 15.914062 -8.835938 15.71875 -8.265625 C 15.53125 -7.703125 15.285156 -7.132812 14.984375 -6.5625 C 14.691406 -6 14.378906 -5.441406 14.046875 -4.890625 C 13.722656 -4.335938 13.410156 -3.804688 13.109375 -3.296875 C 12.816406 -2.785156 12.570312 -2.296875 12.375 -1.828125 C 12.1875 -1.359375 12.09375 -0.9375 12.09375 -0.5625 C 12.09375 -0.257812 12.15625 -0.0625 12.28125 0.03125 C 12.414062 0.132812 12.5625 0.1875 12.71875 0.1875 C 13.195312 0.1875 13.738281 -0.0507812 14.34375 -0.53125 C 14.945312 -1.007812 15.554688 -1.613281 16.171875 -2.34375 C 16.796875 -3.070312 17.410156 -3.863281 18.015625 -4.71875 C 18.628906 -5.570312 19.1875 -6.382812 19.6875 -7.15625 L 20.375 -6.609375 C 20.28125 -6.460938 20.097656 -6.160156 19.828125 -5.703125 C 19.554688 -5.242188 19.222656 -4.722656 18.828125 -4.140625 C 18.429688 -3.566406 17.984375 -2.960938 17.484375 -2.328125 C 16.992188 -1.691406 16.46875 -1.109375 15.90625 -0.578125 C 15.34375 -0.0546875 14.765625 0.375 14.171875 0.71875 C 13.578125 1.070312 12.984375 1.25 12.390625 1.25 C 12.046875 1.25 11.734375 1.191406 11.453125 1.078125 C 11.171875 0.960938 10.929688 0.800781 10.734375 0.59375 C 10.535156 0.382812 10.375 0.144531 10.25 -0.125 C 10.132812 -0.394531 10.078125 -0.6875 10.078125 -1 C 10.078125 -1.5 10.1875 -2.035156 10.40625 -2.609375 C 10.632812 -3.191406 10.914062 -3.789062 11.25 -4.40625 C 11.582031 -5.019531 11.945312 -5.632812 12.34375 -6.25 C 12.738281 -6.875 13.101562 -7.46875 13.4375 -8.03125 C 13.769531 -8.59375 14.046875 -9.113281 14.265625 -9.59375 C 14.492188 -10.070312 14.609375 -10.484375 14.609375 -10.828125 C 14.609375 -11.222656 14.503906 -11.554688 14.296875 -11.828125 C 14.085938 -12.097656 13.789062 -12.234375 13.40625 -12.234375 C 12.988281 -12.234375 12.507812 -12.0625 11.96875 -11.71875 C 11.4375 -11.382812 10.835938 -10.890625 10.171875 -10.234375 C 9.515625 -9.585938 8.789062 -8.785156 8 -7.828125 C 7.21875 -6.878906 6.363281 -5.796875 5.4375 -4.578125 C 4.914062 -3.878906 4.40625 -3.203125 3.90625 -2.546875 C 3.6875 -2.265625 3.46875 -1.976562 3.25 -1.6875 C 3.039062 -1.394531 2.828125 -1.101562 2.609375 -0.8125 C 2.390625 -0.53125 2.179688 -0.257812 1.984375 0 C 1.796875 0.269531 1.625 0.5 1.46875 0.6875 L -0.203125 0 L 2.03125 -3.09375 C 2.351562 -3.519531 2.679688 -3.984375 3.015625 -4.484375 C 3.347656 -4.984375 3.675781 -5.5 4 -6.03125 C 4.320312 -6.5625 4.628906 -7.09375 4.921875 -7.625 C 5.222656 -8.164062 5.5 -8.691406 5.75 -9.203125 C 6.125 -9.972656 6.378906 -10.609375 6.515625 -11.109375 C 6.660156 -11.617188 6.734375 -12.023438 6.734375 -12.328125 C 6.734375 -12.671875 6.664062 -12.894531 6.53125 -13 C 6.40625 -13.113281 6.226562 -13.171875 6 -13.171875 C 5.757812 -13.171875 5.484375 -13.046875 5.171875 -12.796875 C 4.859375 -12.546875 4.535156 -12.222656 4.203125 -11.828125 C 3.867188 -11.441406 3.53125 -11.003906 3.1875 -10.515625 C 2.851562 -10.023438 2.53125 -9.535156 2.21875 -9.046875 C 1.914062 -8.566406 1.628906 -8.109375 1.359375 -7.671875 C 1.085938 -7.234375 0.863281 -6.878906 0.6875 -6.609375 L 0 -7.15625 C 0.65625 -8.175781 1.242188 -9.109375 1.765625 -9.953125 C 2.296875 -10.804688 2.804688 -11.539062 3.296875 -12.15625 C 3.796875 -12.769531 4.273438 -13.242188 4.734375 -13.578125 C 5.203125 -13.921875 5.703125 -14.09375 6.234375 -14.09375 C 6.515625 -14.09375 6.785156 -14.035156 7.046875 -13.921875 C 7.304688 -13.804688 7.535156 -13.632812 7.734375 -13.40625 C 7.929688 -13.1875 8.085938 -12.914062 8.203125 -12.59375 C 8.316406 -12.269531 8.375 -11.898438 8.375 -11.484375 C 8.375 -11.148438 8.335938 -10.804688 8.265625 -10.453125 C 8.828125 -11.003906 9.347656 -11.457031 9.828125 -11.8125 C 10.316406 -12.164062 10.765625 -12.445312 11.171875 -12.65625 C 11.585938 -12.875 11.96875 -13.023438 12.3125 -13.109375 C 12.65625 -13.203125 12.96875 -13.25 13.25 -13.25 C 13.488281 -13.25 13.769531 -13.203125 14.09375 -13.109375 C 14.414062 -13.023438 14.71875 -12.859375 15 -12.609375 C 15.28125 -12.367188 15.519531 -12.035156 15.71875 -11.609375 C 15.914062 -11.179688 16.015625 -10.628906 16.015625 -9.953125 Z M 16.015625 -9.953125 " />
            </g>
        </g>
    </g>
    <g fill="#000000" fill-opacity="1">
        <g transform="translate(222.658207, 121.189092)">
            <g>
                <path
                    d="M 10.8125 -5.21875 C 10.863281 -5.207031 10.914062 -5.203125 10.96875 -5.203125 C 11.019531 -5.203125 11.078125 -5.203125 11.140625 -5.203125 C 11.492188 -5.203125 11.816406 -5.234375 12.109375 -5.296875 C 12.410156 -5.367188 12.6875 -5.476562 12.9375 -5.625 C 13.1875 -5.78125 13.425781 -5.984375 13.65625 -6.234375 C 13.882812 -6.484375 14.109375 -6.789062 14.328125 -7.15625 L 15.015625 -6.609375 C 14.398438 -5.742188 13.765625 -5.140625 13.109375 -4.796875 C 12.460938 -4.453125 11.773438 -4.28125 11.046875 -4.28125 C 10.773438 -4.28125 10.535156 -4.304688 10.328125 -4.359375 C 9.785156 -3.429688 9.195312 -2.644531 8.5625 -2 C 7.9375 -1.351562 7.296875 -0.828125 6.640625 -0.421875 C 5.992188 -0.015625 5.351562 0.28125 4.71875 0.46875 C 4.082031 0.65625 3.488281 0.75 2.9375 0.75 C 2.375 0.75 1.851562 0.648438 1.375 0.453125 C 0.894531 0.253906 0.476562 -0.0234375 0.125 -0.390625 C -0.21875 -0.765625 -0.484375 -1.207031 -0.671875 -1.71875 C -0.859375 -2.238281 -0.953125 -2.816406 -0.953125 -3.453125 C -0.953125 -4.085938 -0.847656 -4.738281 -0.640625 -5.40625 C -0.441406 -6.070312 -0.171875 -6.726562 0.171875 -7.375 C 0.523438 -8.03125 0.9375 -8.660156 1.40625 -9.265625 C 1.882812 -9.878906 2.398438 -10.445312 2.953125 -10.96875 C 3.503906 -11.488281 4.070312 -11.957031 4.65625 -12.375 C 5.25 -12.800781 5.835938 -13.148438 6.421875 -13.421875 L 7.03125 -12.609375 C 6.351562 -12.128906 5.664062 -11.515625 4.96875 -10.765625 C 4.28125 -10.023438 3.648438 -9.210938 3.078125 -8.328125 C 2.503906 -7.453125 2.035156 -6.535156 1.671875 -5.578125 C 1.304688 -4.628906 1.125 -3.707031 1.125 -2.8125 C 1.125 -2.007812 1.300781 -1.382812 1.65625 -0.9375 C 2.019531 -0.5 2.566406 -0.28125 3.296875 -0.28125 C 3.859375 -0.28125 4.414062 -0.394531 4.96875 -0.625 C 5.519531 -0.863281 6.054688 -1.179688 6.578125 -1.578125 C 7.097656 -1.972656 7.597656 -2.441406 8.078125 -2.984375 C 8.566406 -3.523438 9.03125 -4.101562 9.46875 -4.71875 C 9.101562 -4.9375 8.78125 -5.226562 8.5 -5.59375 C 8.21875 -5.957031 7.976562 -6.367188 7.78125 -6.828125 C 7.59375 -7.296875 7.445312 -7.796875 7.34375 -8.328125 C 7.25 -8.867188 7.203125 -9.421875 7.203125 -9.984375 C 7.203125 -10.546875 7.269531 -11.078125 7.40625 -11.578125 C 7.550781 -12.078125 7.75 -12.515625 8 -12.890625 C 8.25 -13.265625 8.539062 -13.5625 8.875 -13.78125 C 9.207031 -14 9.570312 -14.109375 9.96875 -14.109375 C 10.320312 -14.109375 10.640625 -14.015625 10.921875 -13.828125 C 11.203125 -13.648438 11.4375 -13.394531 11.625 -13.0625 C 11.820312 -12.738281 11.972656 -12.351562 12.078125 -11.90625 C 12.179688 -11.457031 12.234375 -10.976562 12.234375 -10.46875 C 12.234375 -10.082031 12.203125 -9.660156 12.140625 -9.203125 C 12.078125 -8.742188 11.984375 -8.28125 11.859375 -7.8125 C 11.734375 -7.34375 11.582031 -6.878906 11.40625 -6.421875 C 11.238281 -5.972656 11.039062 -5.570312 10.8125 -5.21875 Z M 8.203125 -9.984375 C 8.203125 -9.617188 8.234375 -9.21875 8.296875 -8.78125 C 8.359375 -8.34375 8.457031 -7.921875 8.59375 -7.515625 C 8.738281 -7.109375 8.921875 -6.726562 9.140625 -6.375 C 9.359375 -6.019531 9.628906 -5.742188 9.953125 -5.546875 C 10.179688 -5.992188 10.375 -6.445312 10.53125 -6.90625 C 10.695312 -7.375 10.832031 -7.828125 10.9375 -8.265625 C 11.039062 -8.703125 11.113281 -9.109375 11.15625 -9.484375 C 11.207031 -9.859375 11.234375 -10.1875 11.234375 -10.46875 C 11.234375 -10.851562 11.203125 -11.203125 11.140625 -11.515625 C 11.078125 -11.835938 10.988281 -12.117188 10.875 -12.359375 C 10.769531 -12.597656 10.632812 -12.78125 10.46875 -12.90625 C 10.3125 -13.039062 10.140625 -13.109375 9.953125 -13.109375 C 9.691406 -13.109375 9.453125 -13.019531 9.234375 -12.84375 C 9.023438 -12.675781 8.84375 -12.445312 8.6875 -12.15625 C 8.53125 -11.875 8.410156 -11.546875 8.328125 -11.171875 C 8.242188 -10.796875 8.203125 -10.398438 8.203125 -9.984375 Z M 8.203125 -9.984375 " />
            </g>
        </g>
    </g>
    <g fill="#000000" fill-opacity="1">
        <g transform="translate(236.977339, 121.189092)">
            <g>
                <path
                    d="M 7.3125 -0.65625 C 6.644531 -0.207031 5.953125 0.148438 5.234375 0.421875 C 4.523438 0.703125 3.847656 0.84375 3.203125 0.84375 C 2.710938 0.84375 2.222656 0.769531 1.734375 0.625 C 1.253906 0.488281 0.816406 0.257812 0.421875 -0.0625 C 0.0234375 -0.394531 -0.296875 -0.828125 -0.546875 -1.359375 C -0.796875 -1.898438 -0.921875 -2.566406 -0.921875 -3.359375 C -0.921875 -4.316406 -0.75 -5.234375 -0.40625 -6.109375 C -0.0625 -6.992188 0.394531 -7.816406 0.96875 -8.578125 C 1.550781 -9.335938 2.210938 -10.03125 2.953125 -10.65625 C 3.691406 -11.28125 4.453125 -11.8125 5.234375 -12.25 C 6.023438 -12.695312 6.8125 -13.039062 7.59375 -13.28125 C 8.375 -13.53125 9.082031 -13.65625 9.71875 -13.65625 C 10.34375 -13.65625 10.875 -13.585938 11.3125 -13.453125 C 11.757812 -13.316406 12.132812 -13.148438 12.4375 -12.953125 C 12.75 -12.753906 12.992188 -12.539062 13.171875 -12.3125 C 13.347656 -12.082031 13.492188 -11.863281 13.609375 -11.65625 L 14.640625 -13.015625 L 15.28125 -12.59375 C 15.28125 -12.582031 15.175781 -12.378906 14.96875 -11.984375 C 14.769531 -11.597656 14.503906 -11.078125 14.171875 -10.421875 C 13.835938 -9.773438 13.445312 -9.015625 13 -8.140625 C 12.5625 -7.265625 12.101562 -6.332031 11.625 -5.34375 C 11.144531 -4.363281 10.660156 -3.347656 10.171875 -2.296875 C 9.679688 -1.253906 9.210938 -0.226562 8.765625 0.78125 C 9.921875 0.125 10.941406 -0.507812 11.828125 -1.125 C 12.710938 -1.738281 13.503906 -2.359375 14.203125 -2.984375 C 14.898438 -3.617188 15.523438 -4.273438 16.078125 -4.953125 C 16.640625 -5.628906 17.1875 -6.363281 17.71875 -7.15625 L 18.421875 -6.609375 C 17.910156 -5.785156 17.359375 -5.015625 16.765625 -4.296875 C 16.171875 -3.585938 15.472656 -2.882812 14.671875 -2.1875 C 13.878906 -1.5 12.945312 -0.785156 11.875 -0.046875 C 10.8125 0.679688 9.546875 1.488281 8.078125 2.375 C 6.859375 5.351562 5.6875 7.816406 4.5625 9.765625 C 3.4375 11.710938 2.367188 13.253906 1.359375 14.390625 C 0.359375 15.535156 -0.566406 16.335938 -1.421875 16.796875 C -2.285156 17.253906 -3.066406 17.484375 -3.765625 17.484375 C -4.035156 17.484375 -4.332031 17.445312 -4.65625 17.375 C -4.988281 17.3125 -5.296875 17.175781 -5.578125 16.96875 C -5.859375 16.757812 -6.09375 16.476562 -6.28125 16.125 C -6.46875 15.769531 -6.5625 15.3125 -6.5625 14.75 C -6.5625 13.675781 -6.273438 12.613281 -5.703125 11.5625 C -5.128906 10.507812 -4.300781 9.46875 -3.21875 8.4375 C -2.144531 7.40625 -0.828125 6.375 0.734375 5.34375 C 2.304688 4.320312 4.082031 3.296875 6.0625 2.265625 C 6.300781 1.710938 6.519531 1.191406 6.71875 0.703125 C 6.925781 0.210938 7.125 -0.238281 7.3125 -0.65625 Z M 8.296875 -2.765625 C 8.640625 -3.410156 8.976562 -4.050781 9.3125 -4.6875 C 9.65625 -5.320312 10.007812 -5.953125 10.375 -6.578125 C 10.738281 -7.210938 11.128906 -7.863281 11.546875 -8.53125 C 11.960938 -9.195312 12.425781 -9.890625 12.9375 -10.609375 C 12.914062 -10.796875 12.851562 -10.988281 12.75 -11.1875 C 12.644531 -11.394531 12.503906 -11.582031 12.328125 -11.75 C 12.148438 -11.925781 11.921875 -12.070312 11.640625 -12.1875 C 11.359375 -12.300781 11.023438 -12.359375 10.640625 -12.359375 C 10.203125 -12.359375 9.707031 -12.300781 9.15625 -12.1875 C 8.601562 -12.070312 8.019531 -11.875 7.40625 -11.59375 C 6.789062 -11.3125 6.164062 -10.9375 5.53125 -10.46875 C 4.894531 -10 4.28125 -9.40625 3.6875 -8.6875 C 2.800781 -7.632812 2.117188 -6.585938 1.640625 -5.546875 C 1.171875 -4.503906 0.9375 -3.554688 0.9375 -2.703125 C 0.9375 -1.867188 1.144531 -1.238281 1.5625 -0.8125 C 1.988281 -0.382812 2.566406 -0.171875 3.296875 -0.171875 C 4.066406 -0.171875 4.878906 -0.40625 5.734375 -0.875 C 6.597656 -1.351562 7.453125 -1.984375 8.296875 -2.765625 Z M -3.765625 16.5 C -3.273438 16.5 -2.765625 16.320312 -2.234375 15.96875 C -1.710938 15.613281 -1.179688 15.125 -0.640625 14.5 C -0.109375 13.882812 0.414062 13.164062 0.9375 12.34375 C 1.457031 11.53125 1.972656 10.660156 2.484375 9.734375 C 3.003906 8.804688 3.492188 7.851562 3.953125 6.875 C 4.421875 5.90625 4.867188 4.957031 5.296875 4.03125 C 3.390625 5.019531 1.757812 6.054688 0.40625 7.140625 C -0.9375 8.222656 -2.035156 9.253906 -2.890625 10.234375 C -3.742188 11.222656 -4.363281 12.113281 -4.75 12.90625 C -5.144531 13.695312 -5.34375 14.300781 -5.34375 14.71875 C -5.34375 15.25 -5.226562 15.675781 -5 16 C -4.769531 16.332031 -4.359375 16.5 -3.765625 16.5 Z M -3.765625 16.5 " />
            </g>
        </g>
    </g>
    <g fill="#000000" fill-opacity="1">
        <g transform="translate(254.689359, 121.189092)">
            <g>
                <path
                    d="M 12.09375 -6.609375 C 11.90625 -6.328125 11.679688 -5.945312 11.421875 -5.46875 C 11.160156 -4.988281 10.851562 -4.472656 10.5 -3.921875 C 10.15625 -3.367188 9.773438 -2.800781 9.359375 -2.21875 C 8.953125 -1.644531 8.5 -1.128906 8 -0.671875 C 7.507812 -0.210938 6.976562 0.160156 6.40625 0.453125 C 5.832031 0.753906 5.21875 0.90625 4.5625 0.90625 C 4.207031 0.90625 3.867188 0.847656 3.546875 0.734375 C 3.222656 0.628906 2.941406 0.460938 2.703125 0.234375 C 2.460938 0.00390625 2.269531 -0.273438 2.125 -0.609375 C 1.988281 -0.953125 1.921875 -1.359375 1.921875 -1.828125 C 1.921875 -2.453125 2.046875 -3.101562 2.296875 -3.78125 C 2.546875 -4.46875 2.832031 -5.128906 3.15625 -5.765625 C 3.488281 -6.410156 3.820312 -7 4.15625 -7.53125 C 4.488281 -8.0625 4.734375 -8.484375 4.890625 -8.796875 C 5.046875 -9.117188 5.125 -9.394531 5.125 -9.625 C 5.125 -9.789062 5.066406 -9.9375 4.953125 -10.0625 C 4.847656 -10.1875 4.710938 -10.3125 4.546875 -10.4375 C 4.390625 -10.5625 4.222656 -10.691406 4.046875 -10.828125 C 3.878906 -10.960938 3.738281 -11.125 3.625 -11.3125 C 3.300781 -10.800781 2.972656 -10.285156 2.640625 -9.765625 C 2.347656 -9.316406 2.03125 -8.8125 1.6875 -8.25 C 1.34375 -7.695312 1.007812 -7.148438 0.6875 -6.609375 L 0 -7.15625 L 4.109375 -13.578125 L 4.65625 -13.28125 C 4.632812 -13.207031 4.59375 -13.085938 4.53125 -12.921875 C 4.476562 -12.753906 4.453125 -12.578125 4.453125 -12.390625 C 4.453125 -12.242188 4.472656 -12.101562 4.515625 -11.96875 C 4.554688 -11.832031 4.648438 -11.707031 4.796875 -11.59375 C 5.304688 -11.132812 5.707031 -10.78125 6 -10.53125 C 6.289062 -10.28125 6.503906 -10.082031 6.640625 -9.9375 C 6.773438 -9.789062 6.859375 -9.671875 6.890625 -9.578125 C 6.921875 -9.484375 6.9375 -9.359375 6.9375 -9.203125 C 6.9375 -9.046875 6.910156 -8.859375 6.859375 -8.640625 C 6.804688 -8.429688 6.71875 -8.171875 6.59375 -7.859375 C 6.476562 -7.554688 6.316406 -7.195312 6.109375 -6.78125 C 5.898438 -6.363281 5.632812 -5.878906 5.3125 -5.328125 C 5.113281 -4.992188 4.921875 -4.65625 4.734375 -4.3125 C 4.554688 -3.976562 4.394531 -3.640625 4.25 -3.296875 C 4.101562 -2.953125 3.984375 -2.609375 3.890625 -2.265625 C 3.804688 -1.921875 3.765625 -1.585938 3.765625 -1.265625 C 3.765625 -1.023438 3.796875 -0.828125 3.859375 -0.671875 C 3.929688 -0.523438 4.023438 -0.414062 4.140625 -0.34375 C 4.253906 -0.269531 4.378906 -0.21875 4.515625 -0.1875 C 4.648438 -0.164062 4.78125 -0.15625 4.90625 -0.15625 C 5.332031 -0.15625 5.75 -0.28125 6.15625 -0.53125 C 6.570312 -0.78125 6.984375 -1.101562 7.390625 -1.5 C 7.796875 -1.894531 8.1875 -2.34375 8.5625 -2.84375 C 8.9375 -3.351562 9.296875 -3.867188 9.640625 -4.390625 C 9.984375 -4.910156 10.300781 -5.410156 10.59375 -5.890625 C 10.894531 -6.367188 11.160156 -6.789062 11.390625 -7.15625 Z M 12.09375 -6.609375 " />
            </g>
        </g>
    </g>
    <g fill="#000000" fill-opacity="1">
        <g transform="translate(266.075657, 121.189092)">
            <g>
                <path
                    d="M 15.25 -12.75 C 15.082031 -12.414062 14.847656 -11.976562 14.546875 -11.4375 C 14.242188 -10.90625 13.921875 -10.316406 13.578125 -9.671875 C 13.234375 -9.023438 12.882812 -8.347656 12.53125 -7.640625 C 12.175781 -6.941406 11.851562 -6.253906 11.5625 -5.578125 C 11.28125 -4.910156 11.046875 -4.28125 10.859375 -3.6875 C 10.671875 -3.09375 10.578125 -2.59375 10.578125 -2.1875 C 10.578125 -1.78125 10.65625 -1.515625 10.8125 -1.390625 C 10.976562 -1.265625 11.191406 -1.203125 11.453125 -1.203125 C 11.816406 -1.203125 12.191406 -1.3125 12.578125 -1.53125 C 12.972656 -1.75 13.359375 -2.03125 13.734375 -2.375 C 14.109375 -2.71875 14.472656 -3.109375 14.828125 -3.546875 C 15.191406 -3.984375 15.53125 -4.421875 15.84375 -4.859375 C 16.15625 -5.296875 16.4375 -5.71875 16.6875 -6.125 C 16.945312 -6.53125 17.164062 -6.875 17.34375 -7.15625 L 18.046875 -6.609375 C 17.828125 -6.203125 17.566406 -5.757812 17.265625 -5.28125 C 16.972656 -4.8125 16.648438 -4.335938 16.296875 -3.859375 C 15.953125 -3.378906 15.570312 -2.914062 15.15625 -2.46875 C 14.75 -2.019531 14.316406 -1.625 13.859375 -1.28125 C 13.410156 -0.9375 12.9375 -0.660156 12.4375 -0.453125 C 11.945312 -0.253906 11.4375 -0.15625 10.90625 -0.15625 C 10.144531 -0.15625 9.582031 -0.382812 9.21875 -0.84375 C 8.863281 -1.300781 8.6875 -1.894531 8.6875 -2.625 C 8.6875 -2.675781 8.6875 -2.785156 8.6875 -2.953125 C 8.695312 -3.128906 8.71875 -3.269531 8.75 -3.375 C 8.101562 -2.570312 7.488281 -1.90625 6.90625 -1.375 C 6.332031 -0.851562 5.769531 -0.4375 5.21875 -0.125 C 4.675781 0.175781 4.148438 0.382812 3.640625 0.5 C 3.140625 0.625 2.660156 0.6875 2.203125 0.6875 C 1.710938 0.6875 1.253906 0.601562 0.828125 0.4375 C 0.398438 0.28125 0.0234375 0.0507812 -0.296875 -0.25 C -0.617188 -0.550781 -0.875 -0.925781 -1.0625 -1.375 C -1.25 -1.820312 -1.34375 -2.34375 -1.34375 -2.9375 C -1.34375 -3.664062 -1.175781 -4.5 -0.84375 -5.4375 C -0.519531 -6.375 0.0507812 -7.382812 0.875 -8.46875 C 1.582031 -9.40625 2.316406 -10.191406 3.078125 -10.828125 C 3.835938 -11.472656 4.582031 -11.988281 5.3125 -12.375 C 6.050781 -12.757812 6.753906 -13.035156 7.421875 -13.203125 C 8.085938 -13.367188 8.679688 -13.453125 9.203125 -13.453125 C 10.378906 -13.453125 11.265625 -13.257812 11.859375 -12.875 C 12.460938 -12.488281 12.828125 -11.890625 12.953125 -11.078125 C 13.210938 -11.398438 13.484375 -11.71875 13.765625 -12.03125 C 14.046875 -12.351562 14.332031 -12.679688 14.625 -13.015625 Z M 9.359375 -5.46875 C 9.523438 -5.726562 9.726562 -6.066406 9.96875 -6.484375 C 10.207031 -6.898438 10.460938 -7.328125 10.734375 -7.765625 C 11.003906 -8.210938 11.265625 -8.640625 11.515625 -9.046875 C 11.773438 -9.453125 12 -9.796875 12.1875 -10.078125 C 12.1875 -10.191406 12.171875 -10.378906 12.140625 -10.640625 C 12.109375 -10.898438 12.019531 -11.160156 11.875 -11.421875 C 11.738281 -11.679688 11.515625 -11.90625 11.203125 -12.09375 C 10.898438 -12.289062 10.476562 -12.390625 9.9375 -12.390625 C 9.539062 -12.390625 9.09375 -12.328125 8.59375 -12.203125 C 8.101562 -12.078125 7.578125 -11.867188 7.015625 -11.578125 C 6.460938 -11.296875 5.890625 -10.914062 5.296875 -10.4375 C 4.710938 -9.96875 4.128906 -9.382812 3.546875 -8.6875 C 2.660156 -7.625 1.976562 -6.554688 1.5 -5.484375 C 1.019531 -4.421875 0.78125 -3.460938 0.78125 -2.609375 C 0.78125 -1.878906 0.945312 -1.316406 1.28125 -0.921875 C 1.613281 -0.523438 2.085938 -0.328125 2.703125 -0.328125 C 3.410156 -0.328125 4.066406 -0.484375 4.671875 -0.796875 C 5.285156 -1.109375 5.859375 -1.515625 6.390625 -2.015625 C 6.929688 -2.515625 7.445312 -3.066406 7.9375 -3.671875 C 8.425781 -4.273438 8.898438 -4.875 9.359375 -5.46875 Z M 9.359375 -5.46875 " />
            </g>
        </g>
    </g>
    <g fill="#000000" fill-opacity="1">
        <g transform="translate(283.423469, 121.189092)">
            <g>
                <path
                    d="M 15.953125 -10.4375 C 16.316406 -10.863281 16.695312 -11.257812 17.09375 -11.625 C 17.5 -12 17.898438 -12.320312 18.296875 -12.59375 C 18.691406 -12.863281 19.082031 -13.070312 19.46875 -13.21875 C 19.851562 -13.363281 20.226562 -13.4375 20.59375 -13.4375 C 20.875 -13.4375 21.148438 -13.390625 21.421875 -13.296875 C 21.703125 -13.203125 21.945312 -13.054688 22.15625 -12.859375 C 22.375 -12.660156 22.546875 -12.40625 22.671875 -12.09375 C 22.804688 -11.789062 22.875 -11.425781 22.875 -11 C 22.875 -10.382812 22.789062 -9.78125 22.625 -9.1875 C 22.457031 -8.59375 22.242188 -8.015625 21.984375 -7.453125 C 21.734375 -6.890625 21.460938 -6.347656 21.171875 -5.828125 C 20.890625 -5.304688 20.617188 -4.804688 20.359375 -4.328125 C 20.109375 -3.847656 19.898438 -3.390625 19.734375 -2.953125 C 19.566406 -2.523438 19.484375 -2.132812 19.484375 -1.78125 C 19.484375 -1.5 19.554688 -1.296875 19.703125 -1.171875 C 19.847656 -1.054688 20.003906 -1 20.171875 -1 C 20.503906 -1 20.894531 -1.1875 21.34375 -1.5625 C 21.800781 -1.945312 22.28125 -2.441406 22.78125 -3.046875 C 23.28125 -3.648438 23.78125 -4.3125 24.28125 -5.03125 C 24.789062 -5.75 25.273438 -6.457031 25.734375 -7.15625 L 26.421875 -6.609375 C 26.253906 -6.347656 26.039062 -5.992188 25.78125 -5.546875 C 25.519531 -5.109375 25.210938 -4.632812 24.859375 -4.125 C 24.515625 -3.625 24.140625 -3.113281 23.734375 -2.59375 C 23.328125 -2.082031 22.894531 -1.617188 22.4375 -1.203125 C 21.988281 -0.785156 21.519531 -0.445312 21.03125 -0.1875 C 20.539062 0.0703125 20.054688 0.203125 19.578125 0.203125 C 19.304688 0.203125 19.046875 0.164062 18.796875 0.09375 C 18.546875 0.0195312 18.320312 -0.0976562 18.125 -0.265625 C 17.9375 -0.441406 17.785156 -0.671875 17.671875 -0.953125 C 17.554688 -1.234375 17.5 -1.582031 17.5 -2 C 17.5 -2.5625 17.59375 -3.109375 17.78125 -3.640625 C 17.976562 -4.179688 18.222656 -4.710938 18.515625 -5.234375 C 18.816406 -5.753906 19.132812 -6.273438 19.46875 -6.796875 C 19.8125 -7.316406 20.128906 -7.832031 20.421875 -8.34375 C 20.710938 -8.851562 20.953125 -9.363281 21.140625 -9.875 C 21.335938 -10.394531 21.4375 -10.925781 21.4375 -11.46875 C 21.4375 -11.738281 21.382812 -11.953125 21.28125 -12.109375 C 21.175781 -12.265625 20.984375 -12.34375 20.703125 -12.34375 C 20.253906 -12.34375 19.78125 -12.160156 19.28125 -11.796875 C 18.789062 -11.429688 18.273438 -10.941406 17.734375 -10.328125 C 17.191406 -9.710938 16.640625 -9 16.078125 -8.1875 C 15.523438 -7.382812 14.96875 -6.53125 14.40625 -5.625 C 13.851562 -4.726562 13.300781 -3.816406 12.75 -2.890625 C 12.207031 -1.960938 11.691406 -1.066406 11.203125 -0.203125 L 9.59375 -1.046875 C 10.269531 -2.441406 10.90625 -3.6875 11.5 -4.78125 C 12.09375 -5.882812 12.613281 -6.878906 13.0625 -7.765625 C 13.507812 -8.660156 13.859375 -9.472656 14.109375 -10.203125 C 14.367188 -10.941406 14.5 -11.640625 14.5 -12.296875 C 14.5 -12.421875 14.484375 -12.550781 14.453125 -12.6875 C 14.429688 -12.820312 14.378906 -12.9375 14.296875 -13.03125 C 14.222656 -13.132812 14.125 -13.222656 14 -13.296875 C 13.882812 -13.367188 13.726562 -13.40625 13.53125 -13.40625 C 13.101562 -13.40625 12.664062 -13.203125 12.21875 -12.796875 C 11.769531 -12.390625 11.296875 -11.835938 10.796875 -11.140625 C 10.296875 -10.453125 9.757812 -9.644531 9.1875 -8.71875 C 8.625 -7.789062 8.007812 -6.804688 7.34375 -5.765625 C 6.6875 -4.734375 5.972656 -3.671875 5.203125 -2.578125 C 4.441406 -1.484375 3.609375 -0.425781 2.703125 0.59375 L 1.375 -0.28125 C 1.789062 -0.894531 2.222656 -1.546875 2.671875 -2.234375 C 3.128906 -2.921875 3.578125 -3.613281 4.015625 -4.3125 C 4.453125 -5.019531 4.875 -5.71875 5.28125 -6.40625 C 5.6875 -7.101562 6.039062 -7.765625 6.34375 -8.390625 C 6.65625 -9.023438 6.898438 -9.601562 7.078125 -10.125 C 7.253906 -10.644531 7.34375 -11.09375 7.34375 -11.46875 C 7.34375 -11.894531 7.234375 -12.203125 7.015625 -12.390625 C 6.796875 -12.585938 6.515625 -12.6875 6.171875 -12.6875 C 5.765625 -12.6875 5.363281 -12.539062 4.96875 -12.25 C 4.582031 -11.957031 4.175781 -11.539062 3.75 -11 C 3.320312 -10.46875 2.859375 -9.828125 2.359375 -9.078125 C 1.867188 -8.328125 1.3125 -7.503906 0.6875 -6.609375 L 0 -7.15625 C 0.675781 -8.226562 1.285156 -9.171875 1.828125 -9.984375 C 2.367188 -10.804688 2.882812 -11.488281 3.375 -12.03125 C 3.863281 -12.582031 4.347656 -13 4.828125 -13.28125 C 5.304688 -13.5625 5.828125 -13.703125 6.390625 -13.703125 C 6.554688 -13.703125 6.769531 -13.671875 7.03125 -13.609375 C 7.289062 -13.546875 7.546875 -13.429688 7.796875 -13.265625 C 8.054688 -13.097656 8.285156 -12.867188 8.484375 -12.578125 C 8.679688 -12.285156 8.800781 -11.910156 8.84375 -11.453125 C 9.550781 -12.367188 10.296875 -13.097656 11.078125 -13.640625 C 11.859375 -14.191406 12.59375 -14.46875 13.28125 -14.46875 C 13.78125 -14.46875 14.203125 -14.367188 14.546875 -14.171875 C 14.890625 -13.972656 15.164062 -13.710938 15.375 -13.390625 C 15.59375 -13.078125 15.75 -12.71875 15.84375 -12.3125 C 15.9375 -11.914062 15.984375 -11.507812 15.984375 -11.09375 C 15.984375 -11 15.976562 -10.894531 15.96875 -10.78125 C 15.96875 -10.664062 15.960938 -10.550781 15.953125 -10.4375 Z M 15.953125 -10.4375 " />
            </g>
        </g>
    </g>
</svg>