<?xml version="1.0" encoding="utf-8"?>
<svg viewBox="139.8368 93.3765 100.3726 35.9063" width="100.3726" height="35.9063"
    xmlns="http://www.w3.org/2000/svg">
    <g fill="#000000" fill-opacity="1">
        <g transform="translate(141.368037, 121.189035)">
            <g>
                <path
                    d="M 50.71875 6.609375 C 50.675781 6.640625 50.5 6.726562 50.1875 6.875 C 49.882812 7.03125 49.484375 7.195312 48.984375 7.375 C 48.484375 7.5625 47.914062 7.726562 47.28125 7.875 C 46.644531 8.019531 45.976562 8.09375 45.28125 8.09375 C 44.15625 8.09375 43.144531 7.894531 42.25 7.5 C 41.363281 7.101562 40.609375 6.539062 39.984375 5.8125 C 39.367188 5.09375 38.894531 4.222656 38.5625 3.203125 C 38.226562 2.191406 38.0625 1.066406 38.0625 -0.171875 C 38.0625 -1.359375 38.207031 -2.664062 38.5 -4.09375 C 38.789062 -5.519531 39.171875 -6.984375 39.640625 -8.484375 C 40.117188 -9.992188 40.65625 -11.503906 41.25 -13.015625 C 41.84375 -14.523438 42.441406 -15.957031 43.046875 -17.3125 C 43.660156 -18.675781 44.238281 -19.925781 44.78125 -21.0625 C 45.332031 -22.195312 45.804688 -23.140625 46.203125 -23.890625 C 45.484375 -23.066406 44.664062 -22.117188 43.75 -21.046875 C 42.832031 -19.984375 41.851562 -18.816406 40.8125 -17.546875 C 39.769531 -16.273438 38.6875 -14.921875 37.5625 -13.484375 C 36.4375 -12.046875 35.300781 -10.550781 34.15625 -9 C 33.007812 -7.445312 31.875 -5.851562 30.75 -4.21875 C 29.625 -2.59375 28.550781 -0.957031 27.53125 0.6875 L 26.609375 0.390625 C 26.804688 -1.691406 27.125 -3.757812 27.5625 -5.8125 C 28 -7.863281 28.492188 -9.835938 29.046875 -11.734375 C 29.609375 -13.640625 30.195312 -15.425781 30.8125 -17.09375 C 31.4375 -18.757812 32.03125 -20.25 32.59375 -21.5625 C 31.738281 -20.394531 30.882812 -19.125 30.03125 -17.75 C 29.1875 -16.375 28.328125 -14.957031 27.453125 -13.5 C 26.585938 -12.050781 25.691406 -10.59375 24.765625 -9.125 C 23.847656 -7.664062 22.890625 -6.257812 21.890625 -4.90625 C 20.898438 -3.5625 19.847656 -2.304688 18.734375 -1.140625 C 17.628906 0.0234375 16.453125 1.039062 15.203125 1.90625 C 13.960938 2.769531 12.632812 3.453125 11.21875 3.953125 C 9.8125 4.453125 8.300781 4.703125 6.6875 4.703125 C 5.445312 4.703125 4.320312 4.515625 3.3125 4.140625 C 2.300781 3.765625 1.4375 3.253906 0.71875 2.609375 C 0 1.972656 -0.550781 1.21875 -0.9375 0.34375 C -1.332031 -0.519531 -1.53125 -1.457031 -1.53125 -2.46875 C -1.53125 -3.457031 -1.375 -4.347656 -1.0625 -5.140625 C -0.75 -5.941406 -0.332031 -6.648438 0.1875 -7.265625 C 0.71875 -7.890625 1.328125 -8.425781 2.015625 -8.875 C 2.710938 -9.332031 3.445312 -9.707031 4.21875 -10 C 4.988281 -10.300781 5.765625 -10.519531 6.546875 -10.65625 C 7.335938 -10.800781 8.085938 -10.875 8.796875 -10.875 C 10.285156 -10.875 11.707031 -10.695312 13.0625 -10.34375 C 14.414062 -9.988281 15.71875 -9.363281 16.96875 -8.46875 L 16.296875 -7.734375 C 16.285156 -7.742188 16.117188 -7.859375 15.796875 -8.078125 C 15.472656 -8.304688 15.007812 -8.550781 14.40625 -8.8125 C 13.8125 -9.082031 13.070312 -9.328125 12.1875 -9.546875 C 11.300781 -9.765625 10.285156 -9.875 9.140625 -9.875 C 8.046875 -9.875 6.984375 -9.722656 5.953125 -9.421875 C 4.921875 -9.128906 4.007812 -8.6875 3.21875 -8.09375 C 2.4375 -7.5 1.804688 -6.75 1.328125 -5.84375 C 0.859375 -4.945312 0.625 -3.894531 0.625 -2.6875 C 0.625 -1.8125 0.796875 -1.003906 1.140625 -0.265625 C 1.484375 0.472656 1.953125 1.113281 2.546875 1.65625 C 3.148438 2.195312 3.875 2.617188 4.71875 2.921875 C 5.5625 3.234375 6.492188 3.390625 7.515625 3.390625 C 9.046875 3.390625 10.515625 3.0625 11.921875 2.40625 C 13.328125 1.757812 14.679688 0.882812 15.984375 -0.21875 C 17.296875 -1.332031 18.550781 -2.628906 19.75 -4.109375 C 20.957031 -5.597656 22.117188 -7.164062 23.234375 -8.8125 C 24.359375 -10.46875 25.441406 -12.160156 26.484375 -13.890625 C 27.535156 -15.628906 28.550781 -17.304688 29.53125 -18.921875 C 30.519531 -20.546875 31.484375 -22.0625 32.421875 -23.46875 C 33.359375 -24.882812 34.269531 -26.101562 35.15625 -27.125 L 36.03125 -26.609375 C 35.46875 -24.898438 34.976562 -23.394531 34.5625 -22.09375 C 34.15625 -20.800781 33.800781 -19.660156 33.5 -18.671875 C 33.195312 -17.691406 32.941406 -16.84375 32.734375 -16.125 C 32.523438 -15.40625 32.34375 -14.765625 32.1875 -14.203125 C 32.03125 -13.640625 31.890625 -13.128906 31.765625 -12.671875 C 31.648438 -12.222656 31.53125 -11.773438 31.40625 -11.328125 C 31.289062 -10.878906 31.15625 -10.40625 31 -9.90625 C 30.84375 -9.414062 30.65625 -8.835938 30.4375 -8.171875 C 30.226562 -7.515625 29.972656 -6.753906 29.671875 -5.890625 C 29.378906 -5.023438 29.023438 -4.007812 28.609375 -2.84375 C 29.679688 -4.457031 30.78125 -6.050781 31.90625 -7.625 C 33.039062 -9.195312 34.171875 -10.71875 35.296875 -12.1875 C 36.421875 -13.664062 37.519531 -15.070312 38.59375 -16.40625 C 39.675781 -17.75 40.703125 -18.992188 41.671875 -20.140625 C 42.640625 -21.296875 43.523438 -22.34375 44.328125 -23.28125 C 45.140625 -24.21875 45.847656 -25.019531 46.453125 -25.6875 C 47.054688 -26.351562 47.523438 -26.867188 47.859375 -27.234375 C 48.203125 -27.609375 48.378906 -27.800781 48.390625 -27.8125 L 49.203125 -27.21875 C 48.441406 -25.351562 47.691406 -23.484375 46.953125 -21.609375 C 46.210938 -19.742188 45.5 -17.921875 44.8125 -16.140625 C 44.132812 -14.367188 43.5 -12.65625 42.90625 -11 C 42.320312 -9.351562 41.8125 -7.8125 41.375 -6.375 C 40.9375 -4.9375 40.59375 -3.625 40.34375 -2.4375 C 40.09375 -1.257812 39.96875 -0.25 39.96875 0.59375 C 39.96875 1.59375 40.085938 2.492188 40.328125 3.296875 C 40.566406 4.097656 40.910156 4.78125 41.359375 5.34375 C 41.804688 5.90625 42.359375 6.335938 43.015625 6.640625 C 43.671875 6.941406 44.414062 7.09375 45.25 7.09375 C 45.875 7.09375 46.484375 7.019531 47.078125 6.875 C 47.671875 6.738281 48.195312 6.585938 48.65625 6.421875 C 49.113281 6.253906 49.484375 6.097656 49.765625 5.953125 C 50.046875 5.816406 50.195312 5.75 50.21875 5.75 Z M 50.71875 6.609375 " />
            </g>
        </g>
    </g>
    <g fill="#000000" fill-opacity="1">
        <g transform="translate(188.810947, 121.189035)">
            <g>
                <path
                    d="M 1.453125 -4.375 C 1.429688 -4.21875 1.410156 -4.0625 1.390625 -3.90625 C 1.378906 -3.757812 1.375 -3.609375 1.375 -3.453125 C 1.375 -2.992188 1.441406 -2.554688 1.578125 -2.140625 C 1.710938 -1.722656 1.910156 -1.359375 2.171875 -1.046875 C 2.429688 -0.734375 2.753906 -0.484375 3.140625 -0.296875 C 3.535156 -0.117188 3.984375 -0.03125 4.484375 -0.03125 C 6.160156 -0.03125 7.773438 -0.597656 9.328125 -1.734375 C 10.890625 -2.878906 12.445312 -4.6875 14 -7.15625 L 14.640625 -6.578125 C 13.796875 -5.171875 12.941406 -3.984375 12.078125 -3.015625 C 11.210938 -2.054688 10.347656 -1.273438 9.484375 -0.671875 C 8.617188 -0.0664062 7.769531 0.363281 6.9375 0.625 C 6.101562 0.894531 5.3125 1.03125 4.5625 1.03125 C 4.007812 1.03125 3.425781 0.953125 2.8125 0.796875 C 2.195312 0.648438 1.628906 0.394531 1.109375 0.03125 C 0.597656 -0.320312 0.175781 -0.796875 -0.15625 -1.390625 C -0.5 -1.992188 -0.671875 -2.742188 -0.671875 -3.640625 C -0.671875 -4.597656 -0.503906 -5.519531 -0.171875 -6.40625 C 0.148438 -7.300781 0.570312 -8.128906 1.09375 -8.890625 C 1.613281 -9.660156 2.210938 -10.359375 2.890625 -10.984375 C 3.566406 -11.617188 4.253906 -12.160156 4.953125 -12.609375 C 5.648438 -13.054688 6.332031 -13.40625 7 -13.65625 C 7.664062 -13.90625 8.253906 -14.03125 8.765625 -14.03125 C 9.097656 -14.03125 9.4375 -13.976562 9.78125 -13.875 C 10.125 -13.78125 10.429688 -13.625 10.703125 -13.40625 C 10.984375 -13.1875 11.207031 -12.894531 11.375 -12.53125 C 11.550781 -12.175781 11.640625 -11.75 11.640625 -11.25 C 11.640625 -10.570312 11.484375 -9.9375 11.171875 -9.34375 C 10.859375 -8.75 10.4375 -8.195312 9.90625 -7.6875 C 9.382812 -7.1875 8.78125 -6.734375 8.09375 -6.328125 C 7.40625 -5.929688 6.679688 -5.59375 5.921875 -5.3125 C 5.171875 -5.03125 4.410156 -4.804688 3.640625 -4.640625 C 2.878906 -4.472656 2.148438 -4.382812 1.453125 -4.375 Z M 1.609375 -5.203125 C 2.460938 -5.285156 3.265625 -5.460938 4.015625 -5.734375 C 4.773438 -6.003906 5.46875 -6.332031 6.09375 -6.71875 C 6.71875 -7.113281 7.273438 -7.539062 7.765625 -8 C 8.265625 -8.457031 8.679688 -8.921875 9.015625 -9.390625 C 9.347656 -9.867188 9.601562 -10.320312 9.78125 -10.75 C 9.957031 -11.1875 10.046875 -11.578125 10.046875 -11.921875 C 10.046875 -12.265625 9.953125 -12.539062 9.765625 -12.75 C 9.578125 -12.957031 9.359375 -13.0625 9.109375 -13.0625 C 8.546875 -13.0625 7.910156 -12.859375 7.203125 -12.453125 C 6.503906 -12.046875 5.800781 -11.488281 5.09375 -10.78125 C 4.394531 -10.070312 3.734375 -9.238281 3.109375 -8.28125 C 2.492188 -7.320312 1.992188 -6.296875 1.609375 -5.203125 Z M 1.609375 -5.203125 " />
            </g>
        </g>
    </g>
    <g fill="#000000" fill-opacity="1">
        <g transform="translate(202.804208, 121.189035)">
            <g>
                <path
                    d="M 16.015625 -9.953125 C 16.015625 -9.398438 15.914062 -8.835938 15.71875 -8.265625 C 15.53125 -7.703125 15.285156 -7.132812 14.984375 -6.5625 C 14.691406 -6 14.378906 -5.441406 14.046875 -4.890625 C 13.722656 -4.335938 13.410156 -3.804688 13.109375 -3.296875 C 12.816406 -2.785156 12.570312 -2.296875 12.375 -1.828125 C 12.1875 -1.359375 12.09375 -0.9375 12.09375 -0.5625 C 12.09375 -0.257812 12.15625 -0.0625 12.28125 0.03125 C 12.414062 0.132812 12.5625 0.1875 12.71875 0.1875 C 13.195312 0.1875 13.738281 -0.0507812 14.34375 -0.53125 C 14.945312 -1.007812 15.554688 -1.613281 16.171875 -2.34375 C 16.796875 -3.070312 17.410156 -3.863281 18.015625 -4.71875 C 18.628906 -5.570312 19.1875 -6.382812 19.6875 -7.15625 L 20.375 -6.609375 C 20.28125 -6.460938 20.097656 -6.160156 19.828125 -5.703125 C 19.554688 -5.242188 19.222656 -4.722656 18.828125 -4.140625 C 18.429688 -3.566406 17.984375 -2.960938 17.484375 -2.328125 C 16.992188 -1.691406 16.46875 -1.109375 15.90625 -0.578125 C 15.34375 -0.0546875 14.765625 0.375 14.171875 0.71875 C 13.578125 1.070312 12.984375 1.25 12.390625 1.25 C 12.046875 1.25 11.734375 1.191406 11.453125 1.078125 C 11.171875 0.960938 10.929688 0.800781 10.734375 0.59375 C 10.535156 0.382812 10.375 0.144531 10.25 -0.125 C 10.132812 -0.394531 10.078125 -0.6875 10.078125 -1 C 10.078125 -1.5 10.1875 -2.035156 10.40625 -2.609375 C 10.632812 -3.191406 10.914062 -3.789062 11.25 -4.40625 C 11.582031 -5.019531 11.945312 -5.632812 12.34375 -6.25 C 12.738281 -6.875 13.101562 -7.46875 13.4375 -8.03125 C 13.769531 -8.59375 14.046875 -9.113281 14.265625 -9.59375 C 14.492188 -10.070312 14.609375 -10.484375 14.609375 -10.828125 C 14.609375 -11.222656 14.503906 -11.554688 14.296875 -11.828125 C 14.085938 -12.097656 13.789062 -12.234375 13.40625 -12.234375 C 12.988281 -12.234375 12.507812 -12.0625 11.96875 -11.71875 C 11.4375 -11.382812 10.835938 -10.890625 10.171875 -10.234375 C 9.515625 -9.585938 8.789062 -8.785156 8 -7.828125 C 7.21875 -6.878906 6.363281 -5.796875 5.4375 -4.578125 C 4.914062 -3.878906 4.40625 -3.203125 3.90625 -2.546875 C 3.6875 -2.265625 3.46875 -1.976562 3.25 -1.6875 C 3.039062 -1.394531 2.828125 -1.101562 2.609375 -0.8125 C 2.390625 -0.53125 2.179688 -0.257812 1.984375 0 C 1.796875 0.269531 1.625 0.5 1.46875 0.6875 L -0.203125 0 L 2.03125 -3.09375 C 2.351562 -3.519531 2.679688 -3.984375 3.015625 -4.484375 C 3.347656 -4.984375 3.675781 -5.5 4 -6.03125 C 4.320312 -6.5625 4.628906 -7.09375 4.921875 -7.625 C 5.222656 -8.164062 5.5 -8.691406 5.75 -9.203125 C 6.125 -9.972656 6.378906 -10.609375 6.515625 -11.109375 C 6.660156 -11.617188 6.734375 -12.023438 6.734375 -12.328125 C 6.734375 -12.671875 6.664062 -12.894531 6.53125 -13 C 6.40625 -13.113281 6.226562 -13.171875 6 -13.171875 C 5.757812 -13.171875 5.484375 -13.046875 5.171875 -12.796875 C 4.859375 -12.546875 4.535156 -12.222656 4.203125 -11.828125 C 3.867188 -11.441406 3.53125 -11.003906 3.1875 -10.515625 C 2.851562 -10.023438 2.53125 -9.535156 2.21875 -9.046875 C 1.914062 -8.566406 1.628906 -8.109375 1.359375 -7.671875 C 1.085938 -7.234375 0.863281 -6.878906 0.6875 -6.609375 L 0 -7.15625 C 0.65625 -8.175781 1.242188 -9.109375 1.765625 -9.953125 C 2.296875 -10.804688 2.804688 -11.539062 3.296875 -12.15625 C 3.796875 -12.769531 4.273438 -13.242188 4.734375 -13.578125 C 5.203125 -13.921875 5.703125 -14.09375 6.234375 -14.09375 C 6.515625 -14.09375 6.785156 -14.035156 7.046875 -13.921875 C 7.304688 -13.804688 7.535156 -13.632812 7.734375 -13.40625 C 7.929688 -13.1875 8.085938 -12.914062 8.203125 -12.59375 C 8.316406 -12.269531 8.375 -11.898438 8.375 -11.484375 C 8.375 -11.148438 8.335938 -10.804688 8.265625 -10.453125 C 8.828125 -11.003906 9.347656 -11.457031 9.828125 -11.8125 C 10.316406 -12.164062 10.765625 -12.445312 11.171875 -12.65625 C 11.585938 -12.875 11.96875 -13.023438 12.3125 -13.109375 C 12.65625 -13.203125 12.96875 -13.25 13.25 -13.25 C 13.488281 -13.25 13.769531 -13.203125 14.09375 -13.109375 C 14.414062 -13.023438 14.71875 -12.859375 15 -12.609375 C 15.28125 -12.367188 15.519531 -12.035156 15.71875 -11.609375 C 15.914062 -11.179688 16.015625 -10.628906 16.015625 -9.953125 Z M 16.015625 -9.953125 " />
            </g>
        </g>
    </g>
    <g fill="#000000" fill-opacity="1">
        <g transform="translate(222.490619, 121.189035)">
            <g>
                <path
                    d="M 8.9375 -4.171875 C 8.34375 -3.484375 7.757812 -2.847656 7.1875 -2.265625 C 6.613281 -1.691406 6.039062 -1.195312 5.46875 -0.78125 C 4.90625 -0.363281 4.34375 -0.0351562 3.78125 0.203125 C 3.21875 0.441406 2.648438 0.5625 2.078125 0.5625 C 1.585938 0.5625 1.144531 0.472656 0.75 0.296875 C 0.363281 0.117188 0.03125 -0.125 -0.25 -0.4375 C -0.539062 -0.75 -0.765625 -1.128906 -0.921875 -1.578125 C -1.078125 -2.035156 -1.15625 -2.546875 -1.15625 -3.109375 C -1.15625 -3.984375 -0.957031 -4.890625 -0.5625 -5.828125 C -0.175781 -6.765625 0.3125 -7.671875 0.90625 -8.546875 C 1.5 -9.429688 2.15625 -10.269531 2.875 -11.0625 C 3.601562 -11.851562 4.296875 -12.554688 4.953125 -13.171875 L 5.765625 -12.59375 C 5.304688 -11.914062 4.789062 -11.148438 4.21875 -10.296875 C 3.65625 -9.441406 3.117188 -8.554688 2.609375 -7.640625 C 2.109375 -6.722656 1.6875 -5.804688 1.34375 -4.890625 C 1 -3.984375 0.828125 -3.140625 0.828125 -2.359375 C 0.828125 -1.835938 0.925781 -1.390625 1.125 -1.015625 C 1.320312 -0.640625 1.703125 -0.453125 2.265625 -0.453125 C 2.878906 -0.453125 3.550781 -0.695312 4.28125 -1.1875 C 5.019531 -1.675781 5.773438 -2.304688 6.546875 -3.078125 C 7.316406 -3.859375 8.085938 -4.738281 8.859375 -5.71875 C 9.640625 -6.695312 10.375 -7.6875 11.0625 -8.6875 C 11.75 -9.6875 12.375 -10.640625 12.9375 -11.546875 C 13.507812 -12.453125 13.976562 -13.222656 14.34375 -13.859375 L 15.734375 -13.171875 C 14.992188 -11.710938 14.28125 -10.351562 13.59375 -9.09375 C 12.914062 -7.832031 12.3125 -6.703125 11.78125 -5.703125 C 11.25 -4.703125 10.828125 -3.828125 10.515625 -3.078125 C 10.203125 -2.335938 10.046875 -1.753906 10.046875 -1.328125 C 10.046875 -1.140625 10.082031 -0.988281 10.15625 -0.875 C 10.238281 -0.757812 10.363281 -0.703125 10.53125 -0.703125 C 11 -0.691406 11.515625 -0.894531 12.078125 -1.3125 C 12.648438 -1.738281 13.226562 -2.269531 13.8125 -2.90625 C 14.394531 -3.550781 14.960938 -4.253906 15.515625 -5.015625 C 16.078125 -5.773438 16.582031 -6.488281 17.03125 -7.15625 L 17.71875 -6.609375 C 17.632812 -6.484375 17.472656 -6.222656 17.234375 -5.828125 C 16.992188 -5.429688 16.691406 -4.976562 16.328125 -4.46875 C 15.972656 -3.957031 15.566406 -3.421875 15.109375 -2.859375 C 14.648438 -2.296875 14.164062 -1.78125 13.65625 -1.3125 C 13.144531 -0.84375 12.613281 -0.457031 12.0625 -0.15625 C 11.507812 0.132812 10.96875 0.28125 10.4375 0.28125 C 10.101562 0.28125 9.800781 0.222656 9.53125 0.109375 C 9.269531 -0.00390625 9.050781 -0.15625 8.875 -0.34375 C 8.695312 -0.53125 8.554688 -0.753906 8.453125 -1.015625 C 8.347656 -1.273438 8.296875 -1.546875 8.296875 -1.828125 C 8.296875 -2.148438 8.347656 -2.507812 8.453125 -2.90625 C 8.566406 -3.3125 8.726562 -3.734375 8.9375 -4.171875 Z M 8.9375 -4.171875 " />
            </g>
        </g>
    </g>
</svg>