<?xml version="1.0" encoding="utf-8"?>
<svg viewBox="108.5564 86.9086 150.0055 117.7344" width="150.0055" height="117.7344"
    xmlns="http://www.w3.org/2000/svg">
    <g fill="#000000" fill-opacity="1">
        <g transform="translate(109.32204, 114.971094)">
            <g>
                <path
                    d="M 43.75 -27.21875 C 42.914062 -26.6875 42.046875 -26.238281 41.140625 -25.875 C 40.242188 -25.507812 39.316406 -25.21875 38.359375 -25 C 37.398438 -24.78125 36.414062 -24.625 35.40625 -24.53125 C 34.394531 -24.445312 33.375 -24.40625 32.34375 -24.40625 C 31.039062 -24.40625 29.664062 -24.472656 28.21875 -24.609375 C 26.78125 -24.742188 25.347656 -24.882812 23.921875 -25.03125 C 22.492188 -25.1875 21.113281 -25.332031 19.78125 -25.46875 C 18.457031 -25.601562 17.257812 -25.671875 16.1875 -25.671875 C 14.613281 -25.671875 13.179688 -25.46875 11.890625 -25.0625 C 10.597656 -24.664062 9.488281 -24.097656 8.5625 -23.359375 C 7.644531 -22.628906 6.929688 -21.75 6.421875 -20.71875 C 5.921875 -19.6875 5.671875 -18.539062 5.671875 -17.28125 C 5.671875 -16.394531 5.820312 -15.597656 6.125 -14.890625 C 6.425781 -14.179688 6.851562 -13.582031 7.40625 -13.09375 C 7.96875 -12.601562 8.632812 -12.226562 9.40625 -11.96875 C 10.1875 -11.707031 11.050781 -11.578125 12 -11.578125 C 12.820312 -11.578125 13.664062 -11.675781 14.53125 -11.875 C 15.40625 -12.070312 16.265625 -12.367188 17.109375 -12.765625 L 17.5 -11.984375 C 16.644531 -11.484375 15.65625 -11.085938 14.53125 -10.796875 C 13.414062 -10.503906 12.289062 -10.359375 11.15625 -10.359375 C 10.175781 -10.359375 9.226562 -10.5 8.3125 -10.78125 C 7.40625 -11.0625 6.597656 -11.484375 5.890625 -12.046875 C 5.179688 -12.617188 4.613281 -13.332031 4.1875 -14.1875 C 3.769531 -15.050781 3.5625 -16.066406 3.5625 -17.234375 C 3.5625 -18.390625 3.734375 -19.421875 4.078125 -20.328125 C 4.421875 -21.242188 4.894531 -22.054688 5.5 -22.765625 C 6.101562 -23.472656 6.804688 -24.078125 7.609375 -24.578125 C 8.410156 -25.078125 9.273438 -25.488281 10.203125 -25.8125 C 11.128906 -26.144531 12.09375 -26.382812 13.09375 -26.53125 C 14.09375 -26.675781 15.082031 -26.75 16.0625 -26.75 C 17.238281 -26.75 18.5 -26.675781 19.84375 -26.53125 C 21.195312 -26.394531 22.578125 -26.242188 23.984375 -26.078125 C 25.390625 -25.921875 26.800781 -25.769531 28.21875 -25.625 C 29.632812 -25.488281 31.007812 -25.421875 32.34375 -25.421875 C 33.34375 -25.421875 34.328125 -25.460938 35.296875 -25.546875 C 36.265625 -25.628906 37.207031 -25.769531 38.125 -25.96875 C 39.039062 -26.175781 39.921875 -26.445312 40.765625 -26.78125 C 41.617188 -27.125 42.4375 -27.550781 43.21875 -28.0625 Z M 30.296875 -22.71875 C 29.203125 -21.414062 28.238281 -20.050781 27.40625 -18.625 C 26.570312 -17.195312 25.796875 -15.765625 25.078125 -14.328125 C 24.367188 -12.898438 23.695312 -11.488281 23.0625 -10.09375 C 22.425781 -8.695312 21.757812 -7.367188 21.0625 -6.109375 C 20.375 -4.847656 19.632812 -3.679688 18.84375 -2.609375 C 18.0625 -1.546875 17.171875 -0.625 16.171875 0.15625 C 15.171875 0.9375 14.023438 1.546875 12.734375 1.984375 C 11.453125 2.421875 9.984375 2.640625 8.328125 2.640625 C 6.847656 2.640625 5.539062 2.453125 4.40625 2.078125 C 3.28125 1.703125 2.332031 1.1875 1.5625 0.53125 C 0.800781 -0.125 0.222656 -0.894531 -0.171875 -1.78125 C -0.566406 -2.675781 -0.765625 -3.640625 -0.765625 -4.671875 C -0.765625 -5.066406 -0.738281 -5.441406 -0.6875 -5.796875 C -0.632812 -6.160156 -0.554688 -6.488281 -0.453125 -6.78125 L 0.5 -6.5 C 0.425781 -6.238281 0.363281 -5.953125 0.3125 -5.640625 C 0.257812 -5.328125 0.234375 -5.003906 0.234375 -4.671875 C 0.234375 -3.617188 0.457031 -2.691406 0.90625 -1.890625 C 1.351562 -1.097656 1.941406 -0.441406 2.671875 0.078125 C 3.398438 0.597656 4.226562 0.988281 5.15625 1.25 C 6.09375 1.519531 7.046875 1.65625 8.015625 1.65625 C 9.421875 1.65625 10.671875 1.410156 11.765625 0.921875 C 12.859375 0.429688 13.847656 -0.226562 14.734375 -1.0625 C 15.628906 -1.894531 16.445312 -2.875 17.1875 -4 C 17.925781 -5.125 18.640625 -6.332031 19.328125 -7.625 C 20.015625 -8.914062 20.707031 -10.257812 21.40625 -11.65625 C 22.101562 -13.050781 22.859375 -14.429688 23.671875 -15.796875 C 24.484375 -17.160156 25.375 -18.476562 26.34375 -19.75 C 27.3125 -21.03125 28.421875 -22.191406 29.671875 -23.234375 Z M 30.296875 -22.71875 " />
            </g>
        </g>
    </g>
    <g fill="#000000" fill-opacity="1">
        <g transform="translate(139.263788, 114.971094)">
            <g>
                <path
                    d="M 1.453125 -4.375 C 1.429688 -4.21875 1.410156 -4.0625 1.390625 -3.90625 C 1.378906 -3.757812 1.375 -3.609375 1.375 -3.453125 C 1.375 -2.992188 1.441406 -2.554688 1.578125 -2.140625 C 1.710938 -1.722656 1.910156 -1.359375 2.171875 -1.046875 C 2.429688 -0.734375 2.753906 -0.484375 3.140625 -0.296875 C 3.535156 -0.117188 3.984375 -0.03125 4.484375 -0.03125 C 6.160156 -0.03125 7.773438 -0.597656 9.328125 -1.734375 C 10.890625 -2.878906 12.445312 -4.6875 14 -7.15625 L 14.640625 -6.578125 C 13.796875 -5.171875 12.941406 -3.984375 12.078125 -3.015625 C 11.210938 -2.054688 10.347656 -1.273438 9.484375 -0.671875 C 8.617188 -0.0664062 7.769531 0.363281 6.9375 0.625 C 6.101562 0.894531 5.3125 1.03125 4.5625 1.03125 C 4.007812 1.03125 3.425781 0.953125 2.8125 0.796875 C 2.195312 0.648438 1.628906 0.394531 1.109375 0.03125 C 0.597656 -0.320312 0.175781 -0.796875 -0.15625 -1.390625 C -0.5 -1.992188 -0.671875 -2.742188 -0.671875 -3.640625 C -0.671875 -4.597656 -0.503906 -5.519531 -0.171875 -6.40625 C 0.148438 -7.300781 0.570312 -8.128906 1.09375 -8.890625 C 1.613281 -9.660156 2.210938 -10.359375 2.890625 -10.984375 C 3.566406 -11.617188 4.253906 -12.160156 4.953125 -12.609375 C 5.648438 -13.054688 6.332031 -13.40625 7 -13.65625 C 7.664062 -13.90625 8.253906 -14.03125 8.765625 -14.03125 C 9.097656 -14.03125 9.4375 -13.976562 9.78125 -13.875 C 10.125 -13.78125 10.429688 -13.625 10.703125 -13.40625 C 10.984375 -13.1875 11.207031 -12.894531 11.375 -12.53125 C 11.550781 -12.175781 11.640625 -11.75 11.640625 -11.25 C 11.640625 -10.570312 11.484375 -9.9375 11.171875 -9.34375 C 10.859375 -8.75 10.4375 -8.195312 9.90625 -7.6875 C 9.382812 -7.1875 8.78125 -6.734375 8.09375 -6.328125 C 7.40625 -5.929688 6.679688 -5.59375 5.921875 -5.3125 C 5.171875 -5.03125 4.410156 -4.804688 3.640625 -4.640625 C 2.878906 -4.472656 2.148438 -4.382812 1.453125 -4.375 Z M 1.609375 -5.203125 C 2.460938 -5.285156 3.265625 -5.460938 4.015625 -5.734375 C 4.773438 -6.003906 5.46875 -6.332031 6.09375 -6.71875 C 6.71875 -7.113281 7.273438 -7.539062 7.765625 -8 C 8.265625 -8.457031 8.679688 -8.921875 9.015625 -9.390625 C 9.347656 -9.867188 9.601562 -10.320312 9.78125 -10.75 C 9.957031 -11.1875 10.046875 -11.578125 10.046875 -11.921875 C 10.046875 -12.265625 9.953125 -12.539062 9.765625 -12.75 C 9.578125 -12.957031 9.359375 -13.0625 9.109375 -13.0625 C 8.546875 -13.0625 7.910156 -12.859375 7.203125 -12.453125 C 6.503906 -12.046875 5.800781 -11.488281 5.09375 -10.78125 C 4.394531 -10.070312 3.734375 -9.238281 3.109375 -8.28125 C 2.492188 -7.320312 1.992188 -6.296875 1.609375 -5.203125 Z M 1.609375 -5.203125 " />
            </g>
        </g>
    </g>
    <g fill="#000000" fill-opacity="1">
        <g transform="translate(153.25705, 114.971094)">
            <g>
                <path
                    d="M 12.09375 -6.609375 C 11.90625 -6.328125 11.679688 -5.945312 11.421875 -5.46875 C 11.160156 -4.988281 10.851562 -4.472656 10.5 -3.921875 C 10.15625 -3.367188 9.773438 -2.800781 9.359375 -2.21875 C 8.953125 -1.644531 8.5 -1.128906 8 -0.671875 C 7.507812 -0.210938 6.976562 0.160156 6.40625 0.453125 C 5.832031 0.753906 5.21875 0.90625 4.5625 0.90625 C 4.207031 0.90625 3.867188 0.847656 3.546875 0.734375 C 3.222656 0.628906 2.941406 0.460938 2.703125 0.234375 C 2.460938 0.00390625 2.269531 -0.273438 2.125 -0.609375 C 1.988281 -0.953125 1.921875 -1.359375 1.921875 -1.828125 C 1.921875 -2.453125 2.046875 -3.101562 2.296875 -3.78125 C 2.546875 -4.46875 2.832031 -5.128906 3.15625 -5.765625 C 3.488281 -6.410156 3.820312 -7 4.15625 -7.53125 C 4.488281 -8.0625 4.734375 -8.484375 4.890625 -8.796875 C 5.046875 -9.117188 5.125 -9.394531 5.125 -9.625 C 5.125 -9.789062 5.066406 -9.9375 4.953125 -10.0625 C 4.847656 -10.1875 4.710938 -10.3125 4.546875 -10.4375 C 4.390625 -10.5625 4.222656 -10.691406 4.046875 -10.828125 C 3.878906 -10.960938 3.738281 -11.125 3.625 -11.3125 C 3.300781 -10.800781 2.972656 -10.285156 2.640625 -9.765625 C 2.347656 -9.316406 2.03125 -8.8125 1.6875 -8.25 C 1.34375 -7.695312 1.007812 -7.148438 0.6875 -6.609375 L 0 -7.15625 L 4.109375 -13.578125 L 4.65625 -13.28125 C 4.632812 -13.207031 4.59375 -13.085938 4.53125 -12.921875 C 4.476562 -12.753906 4.453125 -12.578125 4.453125 -12.390625 C 4.453125 -12.242188 4.472656 -12.101562 4.515625 -11.96875 C 4.554688 -11.832031 4.648438 -11.707031 4.796875 -11.59375 C 5.304688 -11.132812 5.707031 -10.78125 6 -10.53125 C 6.289062 -10.28125 6.503906 -10.082031 6.640625 -9.9375 C 6.773438 -9.789062 6.859375 -9.671875 6.890625 -9.578125 C 6.921875 -9.484375 6.9375 -9.359375 6.9375 -9.203125 C 6.9375 -9.046875 6.910156 -8.859375 6.859375 -8.640625 C 6.804688 -8.429688 6.71875 -8.171875 6.59375 -7.859375 C 6.476562 -7.554688 6.316406 -7.195312 6.109375 -6.78125 C 5.898438 -6.363281 5.632812 -5.878906 5.3125 -5.328125 C 5.113281 -4.992188 4.921875 -4.65625 4.734375 -4.3125 C 4.554688 -3.976562 4.394531 -3.640625 4.25 -3.296875 C 4.101562 -2.953125 3.984375 -2.609375 3.890625 -2.265625 C 3.804688 -1.921875 3.765625 -1.585938 3.765625 -1.265625 C 3.765625 -1.023438 3.796875 -0.828125 3.859375 -0.671875 C 3.929688 -0.523438 4.023438 -0.414062 4.140625 -0.34375 C 4.253906 -0.269531 4.378906 -0.21875 4.515625 -0.1875 C 4.648438 -0.164062 4.78125 -0.15625 4.90625 -0.15625 C 5.332031 -0.15625 5.75 -0.28125 6.15625 -0.53125 C 6.570312 -0.78125 6.984375 -1.101562 7.390625 -1.5 C 7.796875 -1.894531 8.1875 -2.34375 8.5625 -2.84375 C 8.9375 -3.351562 9.296875 -3.867188 9.640625 -4.390625 C 9.984375 -4.910156 10.300781 -5.410156 10.59375 -5.890625 C 10.894531 -6.367188 11.160156 -6.789062 11.390625 -7.15625 Z M 12.09375 -6.609375 " />
            </g>
        </g>
    </g>
    <g fill="#000000" fill-opacity="1">
        <g transform="translate(164.643348, 114.971094)">
            <g>
                <path
                    d="M 1.453125 -4.375 C 1.429688 -4.21875 1.410156 -4.0625 1.390625 -3.90625 C 1.378906 -3.757812 1.375 -3.609375 1.375 -3.453125 C 1.375 -2.992188 1.441406 -2.554688 1.578125 -2.140625 C 1.710938 -1.722656 1.910156 -1.359375 2.171875 -1.046875 C 2.429688 -0.734375 2.753906 -0.484375 3.140625 -0.296875 C 3.535156 -0.117188 3.984375 -0.03125 4.484375 -0.03125 C 6.160156 -0.03125 7.773438 -0.597656 9.328125 -1.734375 C 10.890625 -2.878906 12.445312 -4.6875 14 -7.15625 L 14.640625 -6.578125 C 13.796875 -5.171875 12.941406 -3.984375 12.078125 -3.015625 C 11.210938 -2.054688 10.347656 -1.273438 9.484375 -0.671875 C 8.617188 -0.0664062 7.769531 0.363281 6.9375 0.625 C 6.101562 0.894531 5.3125 1.03125 4.5625 1.03125 C 4.007812 1.03125 3.425781 0.953125 2.8125 0.796875 C 2.195312 0.648438 1.628906 0.394531 1.109375 0.03125 C 0.597656 -0.320312 0.175781 -0.796875 -0.15625 -1.390625 C -0.5 -1.992188 -0.671875 -2.742188 -0.671875 -3.640625 C -0.671875 -4.597656 -0.503906 -5.519531 -0.171875 -6.40625 C 0.148438 -7.300781 0.570312 -8.128906 1.09375 -8.890625 C 1.613281 -9.660156 2.210938 -10.359375 2.890625 -10.984375 C 3.566406 -11.617188 4.253906 -12.160156 4.953125 -12.609375 C 5.648438 -13.054688 6.332031 -13.40625 7 -13.65625 C 7.664062 -13.90625 8.253906 -14.03125 8.765625 -14.03125 C 9.097656 -14.03125 9.4375 -13.976562 9.78125 -13.875 C 10.125 -13.78125 10.429688 -13.625 10.703125 -13.40625 C 10.984375 -13.1875 11.207031 -12.894531 11.375 -12.53125 C 11.550781 -12.175781 11.640625 -11.75 11.640625 -11.25 C 11.640625 -10.570312 11.484375 -9.9375 11.171875 -9.34375 C 10.859375 -8.75 10.4375 -8.195312 9.90625 -7.6875 C 9.382812 -7.1875 8.78125 -6.734375 8.09375 -6.328125 C 7.40625 -5.929688 6.679688 -5.59375 5.921875 -5.3125 C 5.171875 -5.03125 4.410156 -4.804688 3.640625 -4.640625 C 2.878906 -4.472656 2.148438 -4.382812 1.453125 -4.375 Z M 1.609375 -5.203125 C 2.460938 -5.285156 3.265625 -5.460938 4.015625 -5.734375 C 4.773438 -6.003906 5.46875 -6.332031 6.09375 -6.71875 C 6.71875 -7.113281 7.273438 -7.539062 7.765625 -8 C 8.265625 -8.457031 8.679688 -8.921875 9.015625 -9.390625 C 9.347656 -9.867188 9.601562 -10.320312 9.78125 -10.75 C 9.957031 -11.1875 10.046875 -11.578125 10.046875 -11.921875 C 10.046875 -12.265625 9.953125 -12.539062 9.765625 -12.75 C 9.578125 -12.957031 9.359375 -13.0625 9.109375 -13.0625 C 8.546875 -13.0625 7.910156 -12.859375 7.203125 -12.453125 C 6.503906 -12.046875 5.800781 -11.488281 5.09375 -10.78125 C 4.394531 -10.070312 3.734375 -9.238281 3.109375 -8.28125 C 2.492188 -7.320312 1.992188 -6.296875 1.609375 -5.203125 Z M 1.609375 -5.203125 " />
            </g>
        </g>
    </g>
    <g fill="#000000" fill-opacity="1">
        <g transform="translate(178.63661, 114.971094)">
            <g>
                <path
                    d="M 5.328125 -0.421875 C 5.398438 -0.273438 5.515625 -0.0546875 5.671875 0.234375 C 5.828125 0.535156 5.941406 0.890625 6.015625 1.296875 C 6.804688 0.804688 7.582031 0.273438 8.34375 -0.296875 C 9.101562 -0.867188 9.84375 -1.492188 10.5625 -2.171875 C 11.28125 -2.859375 11.972656 -3.609375 12.640625 -4.421875 C 13.316406 -5.242188 13.960938 -6.15625 14.578125 -7.15625 L 15.265625 -6.609375 C 14.609375 -5.535156 13.925781 -4.566406 13.21875 -3.703125 C 12.519531 -2.847656 11.789062 -2.0625 11.03125 -1.34375 C 10.269531 -0.625 9.476562 0.0351562 8.65625 0.640625 C 7.832031 1.242188 6.972656 1.820312 6.078125 2.375 C 6.023438 3.5625 5.757812 4.757812 5.28125 5.96875 C 4.8125 7.175781 4.207031 8.34375 3.46875 9.46875 C 2.738281 10.59375 1.910156 11.644531 0.984375 12.625 C 0.0546875 13.601562 -0.878906 14.457031 -1.828125 15.1875 C -2.785156 15.914062 -3.710938 16.488281 -4.609375 16.90625 C -5.515625 17.332031 -6.3125 17.546875 -7 17.546875 C -7.5 17.546875 -7.914062 17.457031 -8.25 17.28125 C -8.59375 17.113281 -8.863281 16.894531 -9.0625 16.625 C -9.269531 16.351562 -9.414062 16.054688 -9.5 15.734375 C -9.59375 15.421875 -9.640625 15.117188 -9.640625 14.828125 C -9.640625 14.078125 -9.410156 13.273438 -8.953125 12.421875 C -8.492188 11.578125 -7.8125 10.695312 -6.90625 9.78125 C -6.007812 8.875 -4.894531 7.945312 -3.5625 7 C -2.238281 6.050781 -0.710938 5.109375 1.015625 4.171875 C 1.617188 3.847656 2.210938 3.523438 2.796875 3.203125 C 3.390625 2.878906 3.976562 2.546875 4.5625 2.203125 C 4.5625 2.140625 4.5625 2.070312 4.5625 2 C 4.570312 1.925781 4.578125 1.859375 4.578125 1.796875 C 4.578125 1.421875 4.546875 1.09375 4.484375 0.8125 C 4.429688 0.539062 4.351562 0.304688 4.25 0.109375 C 3.550781 0.390625 2.957031 0.53125 2.46875 0.53125 C 2 0.53125 1.601562 0.414062 1.28125 0.1875 C 0.96875 -0.03125 0.8125 -0.328125 0.8125 -0.703125 C 0.8125 -1.117188 0.988281 -1.4375 1.34375 -1.65625 C 1.695312 -1.882812 2.125 -2 2.625 -2 C 3.289062 -2 3.910156 -1.78125 4.484375 -1.34375 C 5.078125 -1.800781 5.644531 -2.390625 6.1875 -3.109375 C 6.738281 -3.835938 7.222656 -4.617188 7.640625 -5.453125 C 8.066406 -6.285156 8.40625 -7.140625 8.65625 -8.015625 C 8.914062 -8.898438 9.046875 -9.722656 9.046875 -10.484375 C 9.046875 -10.910156 8.988281 -11.269531 8.875 -11.5625 C 8.769531 -11.851562 8.628906 -12.09375 8.453125 -12.28125 C 8.273438 -12.46875 8.070312 -12.601562 7.84375 -12.6875 C 7.613281 -12.78125 7.367188 -12.828125 7.109375 -12.828125 C 6.585938 -12.828125 6.085938 -12.695312 5.609375 -12.4375 C 5.128906 -12.1875 4.675781 -11.859375 4.25 -11.453125 C 3.832031 -11.054688 3.441406 -10.613281 3.078125 -10.125 C 2.710938 -9.632812 2.378906 -9.160156 2.078125 -8.703125 C 1.773438 -8.242188 1.507812 -7.828125 1.28125 -7.453125 C 1.050781 -7.078125 0.859375 -6.796875 0.703125 -6.609375 L 0 -7.15625 C 0.15625 -7.351562 0.347656 -7.65625 0.578125 -8.0625 C 0.816406 -8.46875 1.09375 -8.914062 1.40625 -9.40625 C 1.726562 -9.90625 2.085938 -10.414062 2.484375 -10.9375 C 2.890625 -11.46875 3.328125 -11.945312 3.796875 -12.375 C 4.265625 -12.800781 4.773438 -13.148438 5.328125 -13.421875 C 5.890625 -13.703125 6.484375 -13.84375 7.109375 -13.84375 C 7.710938 -13.84375 8.253906 -13.742188 8.734375 -13.546875 C 9.210938 -13.347656 9.617188 -13.070312 9.953125 -12.71875 C 10.296875 -12.363281 10.5625 -11.9375 10.75 -11.4375 C 10.9375 -10.945312 11.03125 -10.394531 11.03125 -9.78125 C 11.03125 -8.882812 10.875 -7.984375 10.5625 -7.078125 C 10.257812 -6.171875 9.847656 -5.300781 9.328125 -4.46875 C 8.804688 -3.644531 8.203125 -2.882812 7.515625 -2.1875 C 6.828125 -1.5 6.097656 -0.910156 5.328125 -0.421875 Z M 0.453125 10.046875 C 0.847656 9.546875 1.242188 9.019531 1.640625 8.46875 C 2.046875 7.925781 2.421875 7.367188 2.765625 6.796875 C 3.109375 6.222656 3.414062 5.648438 3.6875 5.078125 C 3.96875 4.515625 4.179688 3.96875 4.328125 3.4375 L 1.515625 5.015625 C -0.117188 5.929688 -1.507812 6.785156 -2.65625 7.578125 C -3.800781 8.378906 -4.742188 9.117188 -5.484375 9.796875 C -6.234375 10.484375 -6.816406 11.101562 -7.234375 11.65625 C -7.660156 12.207031 -7.976562 12.691406 -8.1875 13.109375 C -8.40625 13.535156 -8.535156 13.882812 -8.578125 14.15625 C -8.617188 14.4375 -8.640625 14.640625 -8.640625 14.765625 C -8.640625 14.941406 -8.617188 15.125 -8.578125 15.3125 C -8.546875 15.5 -8.472656 15.660156 -8.359375 15.796875 C -8.253906 15.941406 -8.113281 16.054688 -7.9375 16.140625 C -7.757812 16.234375 -7.523438 16.28125 -7.234375 16.28125 C -6.910156 16.28125 -6.515625 16.1875 -6.046875 16 C -5.578125 15.820312 -5.03125 15.5 -4.40625 15.03125 C -3.78125 14.570312 -3.0625 13.9375 -2.25 13.125 C -1.445312 12.320312 -0.546875 11.296875 0.453125 10.046875 Z M 3.703125 -0.765625 C 3.523438 -0.878906 3.332031 -0.960938 3.125 -1.015625 C 2.914062 -1.078125 2.742188 -1.109375 2.609375 -1.109375 C 2.054688 -1.109375 1.78125 -0.988281 1.78125 -0.75 C 1.78125 -0.507812 2.019531 -0.390625 2.5 -0.390625 C 2.625 -0.390625 2.804688 -0.414062 3.046875 -0.46875 C 3.285156 -0.53125 3.503906 -0.628906 3.703125 -0.765625 Z M 3.703125 -0.765625 " />
            </g>
        </g>
    </g>
    <g fill="#000000" fill-opacity="1">
        <g transform="translate(193.204937, 114.971094)">
            <g>
                <path
                    d="M 15.25 -12.75 C 15.082031 -12.414062 14.847656 -11.976562 14.546875 -11.4375 C 14.242188 -10.90625 13.921875 -10.316406 13.578125 -9.671875 C 13.234375 -9.023438 12.882812 -8.347656 12.53125 -7.640625 C 12.175781 -6.941406 11.851562 -6.253906 11.5625 -5.578125 C 11.28125 -4.910156 11.046875 -4.28125 10.859375 -3.6875 C 10.671875 -3.09375 10.578125 -2.59375 10.578125 -2.1875 C 10.578125 -1.78125 10.65625 -1.515625 10.8125 -1.390625 C 10.976562 -1.265625 11.191406 -1.203125 11.453125 -1.203125 C 11.816406 -1.203125 12.191406 -1.3125 12.578125 -1.53125 C 12.972656 -1.75 13.359375 -2.03125 13.734375 -2.375 C 14.109375 -2.71875 14.472656 -3.109375 14.828125 -3.546875 C 15.191406 -3.984375 15.53125 -4.421875 15.84375 -4.859375 C 16.15625 -5.296875 16.4375 -5.71875 16.6875 -6.125 C 16.945312 -6.53125 17.164062 -6.875 17.34375 -7.15625 L 18.046875 -6.609375 C 17.828125 -6.203125 17.566406 -5.757812 17.265625 -5.28125 C 16.972656 -4.8125 16.648438 -4.335938 16.296875 -3.859375 C 15.953125 -3.378906 15.570312 -2.914062 15.15625 -2.46875 C 14.75 -2.019531 14.316406 -1.625 13.859375 -1.28125 C 13.410156 -0.9375 12.9375 -0.660156 12.4375 -0.453125 C 11.945312 -0.253906 11.4375 -0.15625 10.90625 -0.15625 C 10.144531 -0.15625 9.582031 -0.382812 9.21875 -0.84375 C 8.863281 -1.300781 8.6875 -1.894531 8.6875 -2.625 C 8.6875 -2.675781 8.6875 -2.785156 8.6875 -2.953125 C 8.695312 -3.128906 8.71875 -3.269531 8.75 -3.375 C 8.101562 -2.570312 7.488281 -1.90625 6.90625 -1.375 C 6.332031 -0.851562 5.769531 -0.4375 5.21875 -0.125 C 4.675781 0.175781 4.148438 0.382812 3.640625 0.5 C 3.140625 0.625 2.660156 0.6875 2.203125 0.6875 C 1.710938 0.6875 1.253906 0.601562 0.828125 0.4375 C 0.398438 0.28125 0.0234375 0.0507812 -0.296875 -0.25 C -0.617188 -0.550781 -0.875 -0.925781 -1.0625 -1.375 C -1.25 -1.820312 -1.34375 -2.34375 -1.34375 -2.9375 C -1.34375 -3.664062 -1.175781 -4.5 -0.84375 -5.4375 C -0.519531 -6.375 0.0507812 -7.382812 0.875 -8.46875 C 1.582031 -9.40625 2.316406 -10.191406 3.078125 -10.828125 C 3.835938 -11.472656 4.582031 -11.988281 5.3125 -12.375 C 6.050781 -12.757812 6.753906 -13.035156 7.421875 -13.203125 C 8.085938 -13.367188 8.679688 -13.453125 9.203125 -13.453125 C 10.378906 -13.453125 11.265625 -13.257812 11.859375 -12.875 C 12.460938 -12.488281 12.828125 -11.890625 12.953125 -11.078125 C 13.210938 -11.398438 13.484375 -11.71875 13.765625 -12.03125 C 14.046875 -12.351562 14.332031 -12.679688 14.625 -13.015625 Z M 9.359375 -5.46875 C 9.523438 -5.726562 9.726562 -6.066406 9.96875 -6.484375 C 10.207031 -6.898438 10.460938 -7.328125 10.734375 -7.765625 C 11.003906 -8.210938 11.265625 -8.640625 11.515625 -9.046875 C 11.773438 -9.453125 12 -9.796875 12.1875 -10.078125 C 12.1875 -10.191406 12.171875 -10.378906 12.140625 -10.640625 C 12.109375 -10.898438 12.019531 -11.160156 11.875 -11.421875 C 11.738281 -11.679688 11.515625 -11.90625 11.203125 -12.09375 C 10.898438 -12.289062 10.476562 -12.390625 9.9375 -12.390625 C 9.539062 -12.390625 9.09375 -12.328125 8.59375 -12.203125 C 8.101562 -12.078125 7.578125 -11.867188 7.015625 -11.578125 C 6.460938 -11.296875 5.890625 -10.914062 5.296875 -10.4375 C 4.710938 -9.96875 4.128906 -9.382812 3.546875 -8.6875 C 2.660156 -7.625 1.976562 -6.554688 1.5 -5.484375 C 1.019531 -4.421875 0.78125 -3.460938 0.78125 -2.609375 C 0.78125 -1.878906 0.945312 -1.316406 1.28125 -0.921875 C 1.613281 -0.523438 2.085938 -0.328125 2.703125 -0.328125 C 3.410156 -0.328125 4.066406 -0.484375 4.671875 -0.796875 C 5.285156 -1.109375 5.859375 -1.515625 6.390625 -2.015625 C 6.929688 -2.515625 7.445312 -3.066406 7.9375 -3.671875 C 8.425781 -4.273438 8.898438 -4.875 9.359375 -5.46875 Z M 9.359375 -5.46875 " />
            </g>
        </g>
    </g>
    <g fill="#c9862c" fill-opacity="1">
        <g transform="translate(178.333754, 152.471091)">
            <g>
                <path
                    d="M 22.8125 -5.75 C 23.425781 -5.863281 24.046875 -5.921875 24.671875 -5.921875 C 25.460938 -5.921875 26.234375 -5.804688 26.984375 -5.578125 C 27.742188 -5.347656 28.421875 -5.019531 29.015625 -4.59375 C 29.609375 -4.164062 30.082031 -3.640625 30.4375 -3.015625 C 30.800781 -2.390625 30.984375 -1.675781 30.984375 -0.875 C 30.984375 -0.175781 30.828125 0.457031 30.515625 1.03125 C 30.203125 1.601562 29.769531 2.097656 29.21875 2.515625 C 28.664062 2.929688 28.007812 3.25 27.25 3.46875 C 26.5 3.695312 25.6875 3.8125 24.8125 3.8125 C 23.789062 3.8125 22.804688 3.695312 21.859375 3.46875 C 20.921875 3.25 20.023438 2.941406 19.171875 2.546875 C 18.328125 2.148438 17.519531 1.671875 16.75 1.109375 C 15.976562 0.554688 15.257812 -0.0546875 14.59375 -0.734375 C 13.65625 -0.296875 12.671875 0.046875 11.640625 0.296875 C 10.617188 0.546875 9.550781 0.671875 8.4375 0.671875 C 7.070312 0.671875 5.898438 0.523438 4.921875 0.234375 C 3.953125 -0.046875 3.160156 -0.429688 2.546875 -0.921875 C 1.929688 -1.421875 1.476562 -1.992188 1.1875 -2.640625 C 0.90625 -3.296875 0.765625 -3.992188 0.765625 -4.734375 C 0.765625 -5.691406 0.984375 -6.546875 1.421875 -7.296875 C 1.867188 -8.046875 2.460938 -8.707031 3.203125 -9.28125 C 3.941406 -9.863281 4.796875 -10.382812 5.765625 -10.84375 C 6.742188 -11.3125 7.757812 -11.742188 8.8125 -12.140625 C 8.738281 -12.722656 8.703125 -13.300781 8.703125 -13.875 C 8.703125 -15.195312 8.941406 -16.394531 9.421875 -17.46875 C 9.910156 -18.539062 10.546875 -19.453125 11.328125 -20.203125 C 12.117188 -20.960938 13.003906 -21.546875 13.984375 -21.953125 C 14.960938 -22.367188 15.941406 -22.578125 16.921875 -22.578125 C 17.554688 -22.578125 18.128906 -22.488281 18.640625 -22.3125 C 19.148438 -22.132812 19.582031 -21.890625 19.9375 -21.578125 C 20.289062 -21.265625 20.566406 -20.894531 20.765625 -20.46875 C 20.972656 -20.050781 21.078125 -19.609375 21.078125 -19.140625 C 21.078125 -18.472656 20.9375 -17.875 20.65625 -17.34375 C 20.382812 -16.8125 20.007812 -16.328125 19.53125 -15.890625 C 19.050781 -15.460938 18.488281 -15.066406 17.84375 -14.703125 C 17.195312 -14.347656 16.5 -14.015625 15.75 -13.703125 C 15 -13.398438 14.222656 -13.101562 13.421875 -12.8125 C 12.617188 -12.53125 11.8125 -12.238281 11 -11.9375 C 11.15625 -11.226562 11.367188 -10.46875 11.640625 -9.65625 C 11.921875 -8.851562 12.25 -8.039062 12.625 -7.21875 C 13.007812 -6.394531 13.445312 -5.570312 13.9375 -4.75 C 14.4375 -3.9375 14.972656 -3.160156 15.546875 -2.421875 C 16.273438 -2.847656 16.941406 -3.335938 17.546875 -3.890625 C 18.160156 -4.441406 18.6875 -5.023438 19.125 -5.640625 C 19.5625 -6.265625 19.90625 -6.90625 20.15625 -7.5625 C 20.40625 -8.226562 20.53125 -8.90625 20.53125 -9.59375 C 20.53125 -10.101562 20.484375 -10.507812 20.390625 -10.8125 C 20.304688 -11.125 20.257812 -11.320312 20.25 -11.40625 L 21.21875 -11.671875 C 21.269531 -11.535156 21.335938 -11.28125 21.421875 -10.90625 C 21.503906 -10.539062 21.546875 -10.09375 21.546875 -9.5625 C 21.546875 -8.863281 21.414062 -8.148438 21.15625 -7.421875 C 20.90625 -6.691406 20.546875 -5.976562 20.078125 -5.28125 C 19.617188 -4.59375 19.054688 -3.9375 18.390625 -3.3125 C 17.734375 -2.6875 17.003906 -2.117188 16.203125 -1.609375 C 16.765625 -0.941406 17.359375 -0.328125 17.984375 0.234375 C 18.617188 0.796875 19.28125 1.28125 19.96875 1.6875 C 20.664062 2.09375 21.378906 2.410156 22.109375 2.640625 C 22.847656 2.867188 23.609375 2.984375 24.390625 2.984375 C 25.023438 2.984375 25.632812 2.898438 26.21875 2.734375 C 26.8125 2.578125 27.332031 2.328125 27.78125 1.984375 C 28.226562 1.640625 28.582031 1.203125 28.84375 0.671875 C 29.113281 0.148438 29.25 -0.472656 29.25 -1.203125 C 29.25 -1.859375 29.113281 -2.429688 28.84375 -2.921875 C 28.582031 -3.410156 28.226562 -3.820312 27.78125 -4.15625 C 27.332031 -4.5 26.820312 -4.757812 26.25 -4.9375 C 25.6875 -5.113281 25.097656 -5.203125 24.484375 -5.203125 C 24.210938 -5.203125 23.953125 -5.1875 23.703125 -5.15625 C 23.453125 -5.132812 23.21875 -5.101562 23 -5.0625 Z M 8.96875 -11.15625 C 8.164062 -10.8125 7.410156 -10.441406 6.703125 -10.046875 C 5.992188 -9.648438 5.375 -9.203125 4.84375 -8.703125 C 4.320312 -8.210938 3.90625 -7.660156 3.59375 -7.046875 C 3.289062 -6.441406 3.140625 -5.753906 3.140625 -4.984375 C 3.140625 -4.328125 3.242188 -3.722656 3.453125 -3.171875 C 3.671875 -2.617188 4.003906 -2.132812 4.453125 -1.71875 C 4.910156 -1.300781 5.488281 -0.976562 6.1875 -0.75 C 6.894531 -0.519531 7.738281 -0.40625 8.71875 -0.40625 C 9.59375 -0.40625 10.460938 -0.5 11.328125 -0.6875 C 12.203125 -0.882812 13.039062 -1.160156 13.84375 -1.515625 C 13.207031 -2.210938 12.625 -2.957031 12.09375 -3.75 C 11.570312 -4.550781 11.101562 -5.363281 10.6875 -6.1875 C 10.28125 -7.007812 9.929688 -7.835938 9.640625 -8.671875 C 9.347656 -9.515625 9.125 -10.34375 8.96875 -11.15625 Z M 20 -19.109375 C 20 -19.410156 19.9375 -19.707031 19.8125 -20 C 19.695312 -20.289062 19.515625 -20.550781 19.265625 -20.78125 C 19.015625 -21.007812 18.691406 -21.191406 18.296875 -21.328125 C 17.910156 -21.472656 17.453125 -21.546875 16.921875 -21.546875 C 16.210938 -21.546875 15.488281 -21.40625 14.75 -21.125 C 14.019531 -20.851562 13.359375 -20.421875 12.765625 -19.828125 C 12.171875 -19.234375 11.679688 -18.46875 11.296875 -17.53125 C 10.921875 -16.59375 10.734375 -15.46875 10.734375 -14.15625 C 10.734375 -13.945312 10.738281 -13.734375 10.75 -13.515625 C 10.769531 -13.296875 10.796875 -13.070312 10.828125 -12.84375 C 11.992188 -13.25 13.125 -13.65625 14.21875 -14.0625 C 15.320312 -14.46875 16.300781 -14.910156 17.15625 -15.390625 C 18.007812 -15.867188 18.695312 -16.40625 19.21875 -17 C 19.738281 -17.601562 20 -18.304688 20 -19.109375 Z M 20 -19.109375 " />
            </g>
        </g>
    </g>
    <g fill="#545454" fill-opacity="1">
        <g transform="translate(166.837661, 189.971088)">
            <g>
                <path
                    d="M 22.109375 -3.0625 C 21.566406 -3.207031 21.03125 -3.347656 20.5 -3.484375 C 19.96875 -3.617188 19.429688 -3.742188 18.890625 -3.859375 C 18.234375 -2.523438 17.539062 -1.222656 16.8125 0.046875 C 16.082031 1.328125 15.3125 2.585938 14.5 3.828125 C 13.875 4.773438 13.171875 5.703125 12.390625 6.609375 C 11.617188 7.515625 10.800781 8.367188 9.9375 9.171875 C 9.070312 9.972656 8.175781 10.707031 7.25 11.375 C 6.320312 12.050781 5.390625 12.632812 4.453125 13.125 C 3.515625 13.613281 2.582031 13.992188 1.65625 14.265625 C 0.726562 14.535156 -0.164062 14.671875 -1.03125 14.671875 C -1.8125 14.671875 -2.597656 14.53125 -3.390625 14.25 C -4.179688 13.976562 -4.894531 13.566406 -5.53125 13.015625 C -6.164062 12.460938 -6.679688 11.773438 -7.078125 10.953125 C -7.472656 10.128906 -7.671875 9.160156 -7.671875 8.046875 C -7.671875 7.472656 -7.601562 6.863281 -7.46875 6.21875 C -7.332031 5.582031 -7.109375 4.925781 -6.796875 4.25 C -6.492188 3.570312 -6.097656 2.878906 -5.609375 2.171875 C -5.128906 1.460938 -4.535156 0.738281 -3.828125 0 C -2.898438 -0.976562 -1.859375 -1.828125 -0.703125 -2.546875 C 0.453125 -3.265625 1.679688 -3.851562 2.984375 -4.3125 C 4.296875 -4.78125 5.660156 -5.125 7.078125 -5.34375 C 8.492188 -5.570312 9.929688 -5.6875 11.390625 -5.6875 C 12.347656 -5.6875 13.300781 -5.640625 14.25 -5.546875 C 15.207031 -5.460938 16.164062 -5.335938 17.125 -5.171875 C 17.800781 -6.578125 18.410156 -7.976562 18.953125 -9.375 C 19.503906 -10.769531 19.988281 -12.144531 20.40625 -13.5 C 21.007812 -15.570312 21.445312 -17.367188 21.71875 -18.890625 C 21.988281 -20.410156 22.125 -21.722656 22.125 -22.828125 C 22.125 -23.773438 22.046875 -24.59375 21.890625 -25.28125 C 21.742188 -25.96875 21.546875 -26.550781 21.296875 -27.03125 C 21.054688 -27.507812 20.773438 -27.894531 20.453125 -28.1875 C 20.140625 -28.488281 19.816406 -28.71875 19.484375 -28.875 C 19.160156 -29.039062 18.84375 -29.148438 18.53125 -29.203125 C 18.21875 -29.265625 17.941406 -29.296875 17.703125 -29.296875 C 16.671875 -29.296875 15.753906 -29.050781 14.953125 -28.5625 C 14.148438 -28.082031 13.46875 -27.398438 12.90625 -26.515625 C 12.351562 -25.628906 11.929688 -24.5625 11.640625 -23.3125 C 11.347656 -22.070312 11.203125 -20.691406 11.203125 -19.171875 C 11.203125 -17.984375 11.300781 -16.882812 11.5 -15.875 C 11.707031 -14.863281 11.960938 -13.941406 12.265625 -13.109375 C 12.578125 -12.285156 12.914062 -11.550781 13.28125 -10.90625 C 13.644531 -10.269531 13.984375 -9.734375 14.296875 -9.296875 C 14.609375 -8.859375 14.863281 -8.523438 15.0625 -8.296875 C 15.269531 -8.066406 15.378906 -7.953125 15.390625 -7.953125 L 14.796875 -7.34375 C 13.984375 -8.039062 13.21875 -8.816406 12.5 -9.671875 C 11.78125 -10.535156 11.160156 -11.457031 10.640625 -12.4375 C 10.117188 -13.425781 9.703125 -14.472656 9.390625 -15.578125 C 9.085938 -16.679688 8.9375 -17.84375 8.9375 -19.0625 C 8.9375 -20.4375 9.132812 -21.796875 9.53125 -23.140625 C 9.925781 -24.484375 10.5 -25.6875 11.25 -26.75 C 12.007812 -27.820312 12.9375 -28.679688 14.03125 -29.328125 C 15.132812 -29.984375 16.390625 -30.3125 17.796875 -30.3125 C 18.109375 -30.3125 18.472656 -30.28125 18.890625 -30.21875 C 19.316406 -30.15625 19.753906 -30.023438 20.203125 -29.828125 C 20.648438 -29.628906 21.09375 -29.347656 21.53125 -28.984375 C 21.976562 -28.628906 22.367188 -28.15625 22.703125 -27.5625 C 23.046875 -26.96875 23.320312 -26.238281 23.53125 -25.375 C 23.738281 -24.507812 23.84375 -23.476562 23.84375 -22.28125 C 23.84375 -21.726562 23.816406 -21.140625 23.765625 -20.515625 C 23.722656 -19.898438 23.648438 -19.234375 23.546875 -18.515625 C 23.179688 -16.140625 22.640625 -13.804688 21.921875 -11.515625 C 21.210938 -9.222656 20.34375 -6.960938 19.3125 -4.734375 C 19.84375 -4.617188 20.363281 -4.492188 20.875 -4.359375 C 21.382812 -4.234375 21.890625 -4.101562 22.390625 -3.96875 Z M -1.046875 13.671875 C -0.0859375 13.722656 0.90625 13.535156 1.9375 13.109375 C 2.96875 12.691406 4.007812 12.082031 5.0625 11.28125 C 6.113281 10.476562 7.160156 9.515625 8.203125 8.390625 C 9.242188 7.265625 10.257812 6.03125 11.25 4.6875 C 12.238281 3.351562 13.1875 1.929688 14.09375 0.421875 C 15.007812 -1.085938 15.863281 -2.632812 16.65625 -4.21875 C 16.007812 -4.3125 15.363281 -4.378906 14.71875 -4.421875 C 14.070312 -4.472656 13.410156 -4.5 12.734375 -4.5 C 10.734375 -4.5 8.882812 -4.273438 7.1875 -3.828125 C 5.5 -3.378906 3.960938 -2.785156 2.578125 -2.046875 C 1.191406 -1.304688 -0.03125 -0.457031 -1.09375 0.5 C -2.15625 1.457031 -3.039062 2.441406 -3.75 3.453125 C -4.46875 4.472656 -5.007812 5.484375 -5.375 6.484375 C -5.75 7.492188 -5.9375 8.410156 -5.9375 9.234375 C -5.9375 9.890625 -5.820312 10.488281 -5.59375 11.03125 C -5.375 11.570312 -5.054688 12.035156 -4.640625 12.421875 C -4.234375 12.816406 -3.722656 13.125 -3.109375 13.34375 C -2.503906 13.5625 -1.816406 13.671875 -1.046875 13.671875 Z M -1.046875 13.671875 " />
            </g>
        </g>
    </g>
    <g fill="#545454" fill-opacity="1">
        <g transform="translate(191.258779, 189.971088)">
            <g>
                <path
                    d="M 15.25 -12.75 C 15.082031 -12.414062 14.847656 -11.976562 14.546875 -11.4375 C 14.242188 -10.90625 13.921875 -10.316406 13.578125 -9.671875 C 13.234375 -9.023438 12.882812 -8.347656 12.53125 -7.640625 C 12.175781 -6.941406 11.851562 -6.253906 11.5625 -5.578125 C 11.28125 -4.910156 11.046875 -4.28125 10.859375 -3.6875 C 10.671875 -3.09375 10.578125 -2.59375 10.578125 -2.1875 C 10.578125 -1.78125 10.65625 -1.515625 10.8125 -1.390625 C 10.976562 -1.265625 11.191406 -1.203125 11.453125 -1.203125 C 11.816406 -1.203125 12.191406 -1.3125 12.578125 -1.53125 C 12.972656 -1.75 13.359375 -2.03125 13.734375 -2.375 C 14.109375 -2.71875 14.472656 -3.109375 14.828125 -3.546875 C 15.191406 -3.984375 15.53125 -4.421875 15.84375 -4.859375 C 16.15625 -5.296875 16.4375 -5.71875 16.6875 -6.125 C 16.945312 -6.53125 17.164062 -6.875 17.34375 -7.15625 L 18.046875 -6.609375 C 17.828125 -6.203125 17.566406 -5.757812 17.265625 -5.28125 C 16.972656 -4.8125 16.648438 -4.335938 16.296875 -3.859375 C 15.953125 -3.378906 15.570312 -2.914062 15.15625 -2.46875 C 14.75 -2.019531 14.316406 -1.625 13.859375 -1.28125 C 13.410156 -0.9375 12.9375 -0.660156 12.4375 -0.453125 C 11.945312 -0.253906 11.4375 -0.15625 10.90625 -0.15625 C 10.144531 -0.15625 9.582031 -0.382812 9.21875 -0.84375 C 8.863281 -1.300781 8.6875 -1.894531 8.6875 -2.625 C 8.6875 -2.675781 8.6875 -2.785156 8.6875 -2.953125 C 8.695312 -3.128906 8.71875 -3.269531 8.75 -3.375 C 8.101562 -2.570312 7.488281 -1.90625 6.90625 -1.375 C 6.332031 -0.851562 5.769531 -0.4375 5.21875 -0.125 C 4.675781 0.175781 4.148438 0.382812 3.640625 0.5 C 3.140625 0.625 2.660156 0.6875 2.203125 0.6875 C 1.710938 0.6875 1.253906 0.601562 0.828125 0.4375 C 0.398438 0.28125 0.0234375 0.0507812 -0.296875 -0.25 C -0.617188 -0.550781 -0.875 -0.925781 -1.0625 -1.375 C -1.25 -1.820312 -1.34375 -2.34375 -1.34375 -2.9375 C -1.34375 -3.664062 -1.175781 -4.5 -0.84375 -5.4375 C -0.519531 -6.375 0.0507812 -7.382812 0.875 -8.46875 C 1.582031 -9.40625 2.316406 -10.191406 3.078125 -10.828125 C 3.835938 -11.472656 4.582031 -11.988281 5.3125 -12.375 C 6.050781 -12.757812 6.753906 -13.035156 7.421875 -13.203125 C 8.085938 -13.367188 8.679688 -13.453125 9.203125 -13.453125 C 10.378906 -13.453125 11.265625 -13.257812 11.859375 -12.875 C 12.460938 -12.488281 12.828125 -11.890625 12.953125 -11.078125 C 13.210938 -11.398438 13.484375 -11.71875 13.765625 -12.03125 C 14.046875 -12.351562 14.332031 -12.679688 14.625 -13.015625 Z M 9.359375 -5.46875 C 9.523438 -5.726562 9.726562 -6.066406 9.96875 -6.484375 C 10.207031 -6.898438 10.460938 -7.328125 10.734375 -7.765625 C 11.003906 -8.210938 11.265625 -8.640625 11.515625 -9.046875 C 11.773438 -9.453125 12 -9.796875 12.1875 -10.078125 C 12.1875 -10.191406 12.171875 -10.378906 12.140625 -10.640625 C 12.109375 -10.898438 12.019531 -11.160156 11.875 -11.421875 C 11.738281 -11.679688 11.515625 -11.90625 11.203125 -12.09375 C 10.898438 -12.289062 10.476562 -12.390625 9.9375 -12.390625 C 9.539062 -12.390625 9.09375 -12.328125 8.59375 -12.203125 C 8.101562 -12.078125 7.578125 -11.867188 7.015625 -11.578125 C 6.460938 -11.296875 5.890625 -10.914062 5.296875 -10.4375 C 4.710938 -9.96875 4.128906 -9.382812 3.546875 -8.6875 C 2.660156 -7.625 1.976562 -6.554688 1.5 -5.484375 C 1.019531 -4.421875 0.78125 -3.460938 0.78125 -2.609375 C 0.78125 -1.878906 0.945312 -1.316406 1.28125 -0.921875 C 1.613281 -0.523438 2.085938 -0.328125 2.703125 -0.328125 C 3.410156 -0.328125 4.066406 -0.484375 4.671875 -0.796875 C 5.285156 -1.109375 5.859375 -1.515625 6.390625 -2.015625 C 6.929688 -2.515625 7.445312 -3.066406 7.9375 -3.671875 C 8.425781 -4.273438 8.898438 -4.875 9.359375 -5.46875 Z M 9.359375 -5.46875 " />
            </g>
        </g>
    </g>
    <g fill="#545454" fill-opacity="1">
        <g transform="translate(208.60659, 189.971088)">
            <g>
                <path
                    d="M 2.296875 -6.734375 C 2.960938 -7.648438 3.671875 -8.53125 4.421875 -9.375 C 5.171875 -10.226562 5.925781 -10.984375 6.6875 -11.640625 C 7.457031 -12.304688 8.234375 -12.835938 9.015625 -13.234375 C 9.796875 -13.628906 10.554688 -13.828125 11.296875 -13.828125 C 11.753906 -13.828125 12.128906 -13.753906 12.421875 -13.609375 C 12.710938 -13.472656 12.941406 -13.296875 13.109375 -13.078125 C 13.285156 -12.859375 13.410156 -12.609375 13.484375 -12.328125 C 13.554688 -12.054688 13.59375 -11.785156 13.59375 -11.515625 C 13.59375 -11.140625 13.519531 -10.726562 13.375 -10.28125 C 13.226562 -9.832031 13.003906 -9.378906 12.703125 -8.921875 C 12.398438 -8.472656 12.019531 -8.039062 11.5625 -7.625 C 11.101562 -7.207031 10.550781 -6.832031 9.90625 -6.5 C 10.050781 -6.164062 10.125 -5.765625 10.125 -5.296875 C 10.125 -4.992188 10.082031 -4.691406 10 -4.390625 C 9.925781 -4.097656 9.84375 -3.800781 9.75 -3.5 C 9.664062 -3.207031 9.582031 -2.910156 9.5 -2.609375 C 9.425781 -2.316406 9.390625 -2.015625 9.390625 -1.703125 C 9.390625 -1.546875 9.398438 -1.394531 9.421875 -1.25 C 9.441406 -1.113281 9.476562 -0.988281 9.53125 -0.875 C 9.59375 -0.757812 9.679688 -0.664062 9.796875 -0.59375 C 9.921875 -0.53125 10.09375 -0.5 10.3125 -0.5 C 10.570312 -0.5 10.867188 -0.601562 11.203125 -0.8125 C 11.535156 -1.019531 11.882812 -1.296875 12.25 -1.640625 C 12.625 -1.992188 13.003906 -2.394531 13.390625 -2.84375 C 13.785156 -3.300781 14.164062 -3.773438 14.53125 -4.265625 C 14.90625 -4.765625 15.265625 -5.257812 15.609375 -5.75 C 15.953125 -6.25 16.265625 -6.71875 16.546875 -7.15625 L 17.25 -6.609375 C 16.601562 -5.640625 15.96875 -4.710938 15.34375 -3.828125 C 14.726562 -2.953125 14.109375 -2.179688 13.484375 -1.515625 C 12.867188 -0.847656 12.238281 -0.316406 11.59375 0.078125 C 10.957031 0.472656 10.300781 0.671875 9.625 0.671875 C 9.351562 0.671875 9.070312 0.628906 8.78125 0.546875 C 8.5 0.472656 8.238281 0.347656 8 0.171875 C 7.769531 0.00390625 7.578125 -0.21875 7.421875 -0.5 C 7.265625 -0.78125 7.1875 -1.125 7.1875 -1.53125 C 7.1875 -2.019531 7.304688 -2.585938 7.546875 -3.234375 C 7.765625 -3.847656 7.925781 -4.363281 8.03125 -4.78125 C 8.132812 -5.195312 8.191406 -5.546875 8.203125 -5.828125 C 7.929688 -5.765625 7.644531 -5.707031 7.34375 -5.65625 C 7.050781 -5.601562 6.769531 -5.578125 6.5 -5.578125 C 6.351562 -5.578125 6.195312 -5.59375 6.03125 -5.625 C 5.875 -5.65625 5.722656 -5.707031 5.578125 -5.78125 C 5.441406 -5.863281 5.320312 -5.960938 5.21875 -6.078125 C 5.125 -6.203125 5.078125 -6.363281 5.078125 -6.5625 C 5.078125 -6.75 5.132812 -6.925781 5.25 -7.09375 C 5.375 -7.269531 5.539062 -7.425781 5.75 -7.5625 C 5.96875 -7.695312 6.222656 -7.800781 6.515625 -7.875 C 6.804688 -7.957031 7.132812 -8 7.5 -8 C 8.164062 -8 8.734375 -7.816406 9.203125 -7.453125 C 9.660156 -7.816406 10.039062 -8.207031 10.34375 -8.625 C 10.644531 -9.050781 10.878906 -9.460938 11.046875 -9.859375 C 11.210938 -10.253906 11.328125 -10.609375 11.390625 -10.921875 C 11.453125 -11.234375 11.484375 -11.46875 11.484375 -11.625 C 11.484375 -12.039062 11.40625 -12.328125 11.25 -12.484375 C 11.101562 -12.648438 10.921875 -12.734375 10.703125 -12.734375 C 10.285156 -12.734375 9.820312 -12.597656 9.3125 -12.328125 C 8.8125 -12.054688 8.289062 -11.691406 7.75 -11.234375 C 7.207031 -10.773438 6.648438 -10.242188 6.078125 -9.640625 C 5.515625 -9.046875 4.960938 -8.414062 4.421875 -7.75 C 3.878906 -7.082031 3.351562 -6.410156 2.84375 -5.734375 C 2.34375 -5.054688 1.878906 -4.414062 1.453125 -3.8125 C 1.066406 -3.175781 0.722656 -2.582031 0.421875 -2.03125 C 0.128906 -1.476562 -0.113281 -1.003906 -0.3125 -0.609375 C -0.519531 -0.210938 -0.679688 0.0820312 -0.796875 0.28125 C -0.921875 0.488281 -0.988281 0.5625 -1 0.5 L -2.890625 0 C -1.378906 -3.4375 0.144531 -6.875 1.6875 -10.3125 C 3.226562 -13.75 4.859375 -17.226562 6.578125 -20.75 C 6.828125 -21.257812 7.113281 -21.816406 7.4375 -22.421875 C 7.769531 -23.023438 8.125 -23.628906 8.5 -24.234375 C 8.875 -24.847656 9.273438 -25.441406 9.703125 -26.015625 C 10.140625 -26.585938 10.582031 -27.09375 11.03125 -27.53125 C 11.488281 -27.976562 11.953125 -28.332031 12.421875 -28.59375 C 12.898438 -28.851562 13.375 -28.984375 13.84375 -28.984375 C 14.34375 -28.984375 14.75 -28.84375 15.0625 -28.5625 C 15.375 -28.28125 15.53125 -27.832031 15.53125 -27.21875 C 15.53125 -26.375 15.300781 -25.347656 14.84375 -24.140625 C 14.394531 -22.941406 13.722656 -21.660156 12.828125 -20.296875 C 11.929688 -18.941406 10.816406 -17.570312 9.484375 -16.1875 C 8.148438 -14.800781 6.59375 -13.515625 4.8125 -12.328125 Z M 5.65625 -14.171875 C 7.195312 -15.367188 8.523438 -16.601562 9.640625 -17.875 C 10.765625 -19.144531 11.6875 -20.367188 12.40625 -21.546875 C 13.132812 -22.722656 13.664062 -23.8125 14 -24.8125 C 14.34375 -25.820312 14.515625 -26.664062 14.515625 -27.34375 C 14.515625 -27.53125 14.460938 -27.679688 14.359375 -27.796875 C 14.253906 -27.910156 14.09375 -27.96875 13.875 -27.96875 C 13.40625 -27.96875 12.921875 -27.734375 12.421875 -27.265625 C 11.921875 -26.804688 11.351562 -26.039062 10.71875 -24.96875 C 10.09375 -23.894531 9.367188 -22.472656 8.546875 -20.703125 C 7.734375 -18.941406 6.769531 -16.765625 5.65625 -14.171875 Z M 8.109375 -6.6875 C 8.046875 -6.832031 7.941406 -6.957031 7.796875 -7.0625 C 7.648438 -7.175781 7.488281 -7.234375 7.3125 -7.234375 C 6.9375 -7.234375 6.609375 -7.15625 6.328125 -7 C 6.046875 -6.84375 5.90625 -6.695312 5.90625 -6.5625 C 5.90625 -6.457031 5.960938 -6.390625 6.078125 -6.359375 C 6.203125 -6.328125 6.316406 -6.3125 6.421875 -6.3125 C 6.753906 -6.3125 7.0625 -6.347656 7.34375 -6.421875 C 7.625 -6.492188 7.878906 -6.582031 8.109375 -6.6875 Z M 8.109375 -6.6875 " />
            </g>
        </g>
    </g>
    <g fill="#545454" fill-opacity="1">
        <g transform="translate(225.14931, 189.971088)">
            <g>
                <path
                    d="M 8.9375 -4.171875 C 8.34375 -3.484375 7.757812 -2.847656 7.1875 -2.265625 C 6.613281 -1.691406 6.039062 -1.195312 5.46875 -0.78125 C 4.90625 -0.363281 4.34375 -0.0351562 3.78125 0.203125 C 3.21875 0.441406 2.648438 0.5625 2.078125 0.5625 C 1.585938 0.5625 1.144531 0.472656 0.75 0.296875 C 0.363281 0.117188 0.03125 -0.125 -0.25 -0.4375 C -0.539062 -0.75 -0.765625 -1.128906 -0.921875 -1.578125 C -1.078125 -2.035156 -1.15625 -2.546875 -1.15625 -3.109375 C -1.15625 -3.984375 -0.957031 -4.890625 -0.5625 -5.828125 C -0.175781 -6.765625 0.3125 -7.671875 0.90625 -8.546875 C 1.5 -9.429688 2.15625 -10.269531 2.875 -11.0625 C 3.601562 -11.851562 4.296875 -12.554688 4.953125 -13.171875 L 5.765625 -12.59375 C 5.304688 -11.914062 4.789062 -11.148438 4.21875 -10.296875 C 3.65625 -9.441406 3.117188 -8.554688 2.609375 -7.640625 C 2.109375 -6.722656 1.6875 -5.804688 1.34375 -4.890625 C 1 -3.984375 0.828125 -3.140625 0.828125 -2.359375 C 0.828125 -1.835938 0.925781 -1.390625 1.125 -1.015625 C 1.320312 -0.640625 1.703125 -0.453125 2.265625 -0.453125 C 2.878906 -0.453125 3.550781 -0.695312 4.28125 -1.1875 C 5.019531 -1.675781 5.773438 -2.304688 6.546875 -3.078125 C 7.316406 -3.859375 8.085938 -4.738281 8.859375 -5.71875 C 9.640625 -6.695312 10.375 -7.6875 11.0625 -8.6875 C 11.75 -9.6875 12.375 -10.640625 12.9375 -11.546875 C 13.507812 -12.453125 13.976562 -13.222656 14.34375 -13.859375 L 15.734375 -13.171875 C 14.992188 -11.710938 14.28125 -10.351562 13.59375 -9.09375 C 12.914062 -7.832031 12.3125 -6.703125 11.78125 -5.703125 C 11.25 -4.703125 10.828125 -3.828125 10.515625 -3.078125 C 10.203125 -2.335938 10.046875 -1.753906 10.046875 -1.328125 C 10.046875 -1.140625 10.082031 -0.988281 10.15625 -0.875 C 10.238281 -0.757812 10.363281 -0.703125 10.53125 -0.703125 C 11 -0.691406 11.515625 -0.894531 12.078125 -1.3125 C 12.648438 -1.738281 13.226562 -2.269531 13.8125 -2.90625 C 14.394531 -3.550781 14.960938 -4.253906 15.515625 -5.015625 C 16.078125 -5.773438 16.582031 -6.488281 17.03125 -7.15625 L 17.71875 -6.609375 C 17.632812 -6.484375 17.472656 -6.222656 17.234375 -5.828125 C 16.992188 -5.429688 16.691406 -4.976562 16.328125 -4.46875 C 15.972656 -3.957031 15.566406 -3.421875 15.109375 -2.859375 C 14.648438 -2.296875 14.164062 -1.78125 13.65625 -1.3125 C 13.144531 -0.84375 12.613281 -0.457031 12.0625 -0.15625 C 11.507812 0.132812 10.96875 0.28125 10.4375 0.28125 C 10.101562 0.28125 9.800781 0.222656 9.53125 0.109375 C 9.269531 -0.00390625 9.050781 -0.15625 8.875 -0.34375 C 8.695312 -0.53125 8.554688 -0.753906 8.453125 -1.015625 C 8.347656 -1.273438 8.296875 -1.546875 8.296875 -1.828125 C 8.296875 -2.148438 8.347656 -2.507812 8.453125 -2.90625 C 8.566406 -3.3125 8.726562 -3.734375 8.9375 -4.171875 Z M 8.9375 -4.171875 " />
            </g>
        </g>
    </g>
    <g fill="#545454" fill-opacity="1">
        <g transform="translate(242.171251, 189.971088)">
            <g>
                <path
                    d="M 10.921875 -8.703125 C 10.441406 -8.816406 10.023438 -8.976562 9.671875 -9.1875 C 9.316406 -9.40625 9.03125 -9.644531 8.8125 -9.90625 C 8.601562 -10.175781 8.445312 -10.460938 8.34375 -10.765625 C 8.238281 -11.066406 8.1875 -11.363281 8.1875 -11.65625 C 8.1875 -12.289062 8.363281 -12.785156 8.71875 -13.140625 C 9.082031 -13.492188 9.53125 -13.671875 10.0625 -13.671875 C 10.425781 -13.671875 10.734375 -13.578125 10.984375 -13.390625 C 11.242188 -13.203125 11.457031 -12.953125 11.625 -12.640625 C 11.789062 -12.335938 11.910156 -11.984375 11.984375 -11.578125 C 12.054688 -11.179688 12.09375 -10.765625 12.09375 -10.328125 C 12.09375 -10.035156 12.078125 -9.742188 12.046875 -9.453125 C 12.023438 -9.171875 11.984375 -8.882812 11.921875 -8.59375 C 11.617188 -7.207031 11.171875 -5.953125 10.578125 -4.828125 C 9.984375 -3.710938 9.3125 -2.753906 8.5625 -1.953125 C 7.8125 -1.160156 7.015625 -0.550781 6.171875 -0.125 C 5.328125 0.300781 4.503906 0.515625 3.703125 0.515625 C 3.148438 0.515625 2.628906 0.4375 2.140625 0.28125 C 1.648438 0.132812 1.210938 -0.113281 0.828125 -0.46875 C 0.453125 -0.832031 0.15625 -1.304688 -0.0625 -1.890625 C -0.28125 -2.472656 -0.390625 -3.191406 -0.390625 -4.046875 C -0.390625 -5.109375 -0.179688 -6.375 0.234375 -7.84375 C 0.648438 -9.3125 1.359375 -11.035156 2.359375 -13.015625 C 3.785156 -15.785156 5.222656 -18.269531 6.671875 -20.46875 C 7.285156 -21.40625 7.929688 -22.320312 8.609375 -23.21875 C 9.285156 -24.113281 9.960938 -24.910156 10.640625 -25.609375 C 11.328125 -26.316406 12.003906 -26.882812 12.671875 -27.3125 C 13.347656 -27.738281 13.988281 -27.953125 14.59375 -27.953125 C 14.664062 -27.953125 14.800781 -27.9375 15 -27.90625 C 15.195312 -27.882812 15.394531 -27.816406 15.59375 -27.703125 C 15.800781 -27.597656 15.984375 -27.429688 16.140625 -27.203125 C 16.304688 -26.984375 16.390625 -26.675781 16.390625 -26.28125 C 16.390625 -25.8125 16.265625 -25.210938 16.015625 -24.484375 C 15.765625 -23.765625 15.394531 -22.96875 14.90625 -22.09375 C 14.414062 -21.21875 13.804688 -20.285156 13.078125 -19.296875 C 12.359375 -18.304688 11.53125 -17.3125 10.59375 -16.3125 C 9.65625 -15.320312 8.613281 -14.34375 7.46875 -13.375 C 6.320312 -12.414062 5.078125 -11.523438 3.734375 -10.703125 C 3.285156 -9.722656 2.910156 -8.84375 2.609375 -8.0625 C 2.316406 -7.28125 2.078125 -6.570312 1.890625 -5.9375 C 1.710938 -5.300781 1.585938 -4.738281 1.515625 -4.25 C 1.441406 -3.769531 1.40625 -3.347656 1.40625 -2.984375 C 1.40625 -2.492188 1.46875 -2.082031 1.59375 -1.75 C 1.726562 -1.425781 1.910156 -1.171875 2.140625 -0.984375 C 2.378906 -0.796875 2.644531 -0.664062 2.9375 -0.59375 C 3.226562 -0.519531 3.535156 -0.484375 3.859375 -0.484375 C 4.453125 -0.484375 5.035156 -0.632812 5.609375 -0.9375 C 6.179688 -1.25 6.722656 -1.648438 7.234375 -2.140625 C 7.742188 -2.628906 8.210938 -3.179688 8.640625 -3.796875 C 9.066406 -4.410156 9.4375 -5.019531 9.75 -5.625 C 10.070312 -6.226562 10.335938 -6.800781 10.546875 -7.34375 C 10.753906 -7.894531 10.878906 -8.347656 10.921875 -8.703125 Z M 4.546875 -12.4375 C 5.722656 -13.25 6.804688 -14.097656 7.796875 -14.984375 C 8.785156 -15.878906 9.679688 -16.773438 10.484375 -17.671875 C 11.296875 -18.578125 12.003906 -19.460938 12.609375 -20.328125 C 13.222656 -21.191406 13.734375 -22 14.140625 -22.75 C 14.554688 -23.507812 14.867188 -24.1875 15.078125 -24.78125 C 15.285156 -25.375 15.390625 -25.859375 15.390625 -26.234375 C 15.390625 -26.566406 15.269531 -26.734375 15.03125 -26.734375 C 14.570312 -26.734375 14.019531 -26.484375 13.375 -25.984375 C 12.726562 -25.484375 11.976562 -24.671875 11.125 -23.546875 C 10.28125 -22.421875 9.3125 -20.945312 8.21875 -19.125 C 7.125 -17.3125 5.898438 -15.082031 4.546875 -12.4375 Z M 11.0625 -9.703125 C 11.070312 -9.816406 11.078125 -9.929688 11.078125 -10.046875 C 11.085938 -10.160156 11.09375 -10.269531 11.09375 -10.375 C 11.09375 -11.0625 11.003906 -11.613281 10.828125 -12.03125 C 10.648438 -12.457031 10.394531 -12.671875 10.0625 -12.671875 C 9.988281 -12.671875 9.898438 -12.660156 9.796875 -12.640625 C 9.703125 -12.617188 9.609375 -12.570312 9.515625 -12.5 C 9.421875 -12.4375 9.34375 -12.335938 9.28125 -12.203125 C 9.21875 -12.078125 9.1875 -11.914062 9.1875 -11.71875 C 9.1875 -11.1875 9.367188 -10.75 9.734375 -10.40625 C 10.097656 -10.070312 10.539062 -9.835938 11.0625 -9.703125 Z M 11.0625 -9.703125 " />
            </g>
        </g>
    </g>
</svg>